<svg xmlns="http://www.w3.org/2000/svg" version="1.1" viewBox="0 0 1500 1500" width="1500" height="1500">
<defs/><!--ITEM: Illustration component 1--><g transform="translate(218.0 62.0) rotate(0.0 523.0 560.5)  scale(0.9048701217249281 0.9050950147915616)"><svg width="1155.967" height="1238.544" viewBox="0.0 0.0 1155.967 1238.544"><path d="m662.414 147.82-153.298 17.213-138.238 76.38 73.153 30.122 194.716-56.479z" fill="#f5b02c"/><path d="m444.031 273.035c-.195 0-.389-.038-.571-.113l-73.153-30.122c-.533-.22-.894-.726-.926-1.302-.033-.576.267-1.12.772-1.398l138.237-76.38c.173-.095.362-.156.558-.178l153.298-17.212c.513-.057 1.02.153 1.341.557s.413.945.241 1.432l-23.667 67.236c-.161.457-.532.808-.997.942l-194.715 56.479c-.137.039-.277.059-.418.059zm-69.693-31.82 69.779 28.732 193.471-56.117 22.617-64.253-150.625 16.913z" fill="#1d1d1b"/><path d="m591.143 512.24c2.497 12.696-30.411 54.775-62.792 54.775s-59.36-44.991-55.813-57.434c3.765-13.209 26.249-23.428 58.63-23.428s56.479 8.306 59.975 26.087z" fill="#1d1d1b"/><path d="m528.352 568.515c-21.694 0-38.31-18.91-44.446-27.041-9.26-12.269-14.647-25.855-12.809-32.305 4.18-14.665 28.321-24.517 60.072-24.517 35.639 0 58.035 9.95 61.446 27.298 1.117 5.679-3.653 15.849-12.448 26.542-11.938 14.514-31.818 30.023-51.815 30.023zm2.817-80.863c-29.922 0-53.438 9.187-57.188 22.339-1.339 4.699 2.523 16.697 12.319 29.675 5.866 7.771 21.707 25.848 42.052 25.848 18.952 0 37.996-14.943 49.498-28.928 7.99-9.714 12.741-19.383 11.822-24.058-3.109-15.808-24.432-24.876-58.503-24.876z" fill="#1d1d1b"/><path d="m492.441 452.803.476 33.342.599 88.22s32.273 16.137 73.153-2.152c1.076-27.97-2.152-112.957-2.152-112.957z" fill="#ffd07f"/><path d="m526.934 582.377c-20.384 0-33.878-6.565-34.088-6.669-.505-.252-.825-.767-.829-1.332l-.599-88.22-.477-33.331c-.006-.425.168-.832.48-1.121.311-.289.727-.431 1.154-.395l72.077 6.455c.752.067 1.336.683 1.365 1.437.032.851 3.217 85.364 2.151 113.071-.022.57-.366 1.079-.886 1.312-14.896 6.663-28.74 8.793-40.348 8.793zm-31.924-8.98c5.208 2.259 34.423 13.448 70.194-2.175.892-26.526-1.739-99.826-2.136-110.588l-69.104-6.188.453 31.678z" fill="#1d1d1b"/><path d="m427.111 274.047c-77.511-32.6-70.522 77.061-5.585 50.723 4.617 52.937 12.313 146.974 131.807 152.61s165.315-134.309 88.799-194.468c-26.403-25.507-23.096-73.054-19.101-101.689s-36.908-74.162-97.787-63.625c-60.877 10.537-103.999 44.896-98.133 156.449z" fill="#ffd07f"/><path d="m560.165 479.042c-2.287 0-4.587-.055-6.903-.164-28.028-1.322-51.857-7.665-70.825-18.854-16.305-9.617-29.483-23.102-39.167-40.079-17.359-30.431-20.736-66.403-23.063-93.051-26.019 9.715-39.272-2.946-43.823-8.959-9.027-11.93-9.335-29.29-.717-40.381 9.647-12.415 27.728-14.48 49.83-5.784-2.425-51.691 5.579-89.233 24.447-114.721 16.186-21.863 40.032-34.869 75.046-40.929 30.741-5.321 60.161 3.037 80.717 22.932 13.436 13.003 20.644 29.242 18.811 42.379-6.81 48.802-.726 81.627 18.603 100.35 18.001 14.174 30.227 33.5 35.359 55.892 4.839 21.112 3.204 43.522-4.729 64.81-8.518 22.857-23.447 42.108-43.173 55.673-19.957 13.723-44.18 20.886-70.413 20.886zm-138.639-155.771c.273 0 .544.074.783.221.406.249.67.675.711 1.149l.059.671c4.729 54.24 12.644 145.021 130.325 150.57 65.055 3.069 103.374-36.444 117.536-74.447 16.451-44.146 4.78-90.207-29.734-117.343-.04-.032-.078-.065-.115-.101-20.109-19.427-26.502-53.11-19.544-102.975 1.704-12.206-5.166-27.459-17.926-39.809-19.86-19.22-48.333-27.285-78.119-22.131-34.206 5.92-57.449 18.554-73.146 39.758-18.722 25.29-26.489 62.951-23.745 115.134.027.516-.213 1.009-.636 1.306-.422.297-.968.356-1.444.156-21.751-9.149-39.427-7.704-48.495 3.965-7.813 10.056-7.495 25.846.74 36.73 8.965 11.849 24.343 14.493 42.188 7.255.18-.073.371-.109.562-.109z" fill="#1d1d1b"/><ellipse cx="506.64" cy="273.278" fill="#1d1d1b" rx="23.501" ry="14.192" transform="matrix(.0239 -.9997 .9997 .0239 221.3539 773.2546)"/><path d="m506.292 298.275c-.083 0-.166-.001-.249-.003-4.336-.104-8.29-2.9-11.135-7.876-2.708-4.735-4.113-10.948-3.957-17.493s1.856-12.683 4.786-17.284c3.079-4.834 7.183-7.44 11.498-7.335 4.335.103 8.29 2.9 11.135 7.875 2.708 4.735 4.113 10.948 3.957 17.493s-1.856 12.683-4.787 17.284c-3.019 4.742-7.005 7.339-11.248 7.339zm.7-46.994c-3.184 0-6.275 2.106-8.724 5.95-2.641 4.146-4.174 9.737-4.317 15.744s1.122 11.665 3.562 15.933c2.303 4.027 5.358 6.288 8.602 6.366 3.263.083 6.404-2.036 8.896-5.948 2.641-4.146 4.174-9.738 4.318-15.744.143-6.006-1.122-11.665-3.562-15.932-2.303-4.028-5.358-6.289-8.602-6.366-.058-.002-.115-.003-.173-.003z" fill="#1d1d1b"/><ellipse cx="516.297" cy="276.111" fill="#ffd07f" rx="12.328" ry="7.445" transform="matrix(.0239 -.9997 .9997 .0239 227.9487 785.6749)"/><ellipse cx="596.784" cy="255.219" fill="#1d1d1b" rx="22.238" ry="12.51" transform="matrix(.0239 -.9997 .9997 .0239 327.4014 845.7453)"/><path d="m596.429 278.953c-.07 0-.141 0-.211-.002-3.906-.093-7.449-2.763-9.977-7.518-2.381-4.479-3.611-10.356-3.463-16.547.314-13.188 6.604-23.4 14.361-23.4.07 0 .141 0 .211.002 7.854.188 13.757 10.758 13.439 24.065l-1.5-.036 1.5.036c-.147 6.192-1.656 12.003-4.248 16.364-2.701 4.545-6.286 7.036-10.112 7.036zm.715-44.468c-5.911 0-11.101 9.317-11.367 20.471-.136 5.685.97 11.037 3.113 15.068 1.997 3.756 4.624 5.86 7.399 5.927 2.778.059 5.501-1.911 7.673-5.567 2.333-3.925 3.692-9.217 3.828-14.902.268-11.238-4.546-20.853-10.512-20.995-.044-.001-.089-.002-.134-.002z" fill="#1d1d1b"/><path d="m547.774 340.102c-1.637 0-3.25-.266-4.755-.856-4.57-1.791-11.245-7.802-4.603-27.945.259-.787 1.11-1.215 1.894-.955.787.259 1.214 1.107.955 1.894-4.286 12.999-3.248 21.824 2.848 24.212 5.667 2.218 13.981-1.669 16.049-6.195.171-.376.491-.664.883-.797.39-.133.821-.099 1.186.096.176.093 17.793 9.27 33.29 2.44 13.527-5.961 17.221-13.942 16.274-18.965-.927-4.92-5.916-8.165-13.018-8.466l-1.282-.054c-9.036-.377-14.491-.604-24.319-3.866-.461-.153-.819-.52-.961-.984-3.672-11.976-3.206-26.432-3.185-27.042.029-.828.724-1.468 1.552-1.446.828.029 1.476.724 1.446 1.552-.005.142-.447 13.96 2.834 25.315 8.971 2.898 14.216 3.117 22.758 3.474l1.284.054c8.57.364 14.639 4.543 15.839 10.908 1.206 6.396-2.893 15.603-18.012 22.266-14.473 6.379-30.013.229-34.593-1.893-2.67 4.018-8.657 7.253-14.364 7.253z" fill="#1d1d1b"/><path d="m423.309 307.84c-.606 0-1.177-.37-1.404-.971-7.031-18.645-22.517-20.901-23.173-20.988-.82-.108-1.399-.861-1.292-1.681s.857-1.4 1.676-1.294c.728.093 17.907 2.516 25.595 22.905.292.775-.099 1.641-.874 1.933-.174.065-.353.096-.528.096z" fill="#1d1d1b"/><path d="m406.623 310.192c-.485 0-.96-.234-1.249-.667-.46-.689-.274-1.62.414-2.08.11-.075 6.66-4.574 8.157-11.991.164-.812.953-1.338 1.767-1.173.812.164 1.337.955 1.173 1.767-1.752 8.682-9.119 13.683-9.432 13.892-.254.171-.543.252-.83.252z" fill="#1d1d1b"/><path d="m418.212 181.707s3.227-92.517 17.212-139.851 49.486-10.758 60.243 4.303 12.909 1.076 13.985-8.606 16.137-66.698 51.637-13.985c35.501 52.713 68.85 128.017 68.85 128.017z" fill="#1d1d1b"/><path d="m418.212 183.207c-.368 0-.726-.135-1.003-.384-.33-.297-.512-.725-.496-1.168.032-.927 3.395-93.25 17.273-140.223 4.304-14.568 11.063-22.724 20.089-24.241 20.071-3.367 41.895 26.811 42.814 28.097 4.229 5.921 6.297 6.143 6.985 5.959 2.83-.737 3.927-10.613 4.288-13.859.591-5.319 6.867-33.139 22.425-36.962 9.639-2.371 20.386 5.137 31.947 22.305 35.168 52.219 68.644 127.494 68.978 128.248.19.43.168.924-.06 1.335s-.636.691-1.101.757l-211.928 30.122c-.07.009-.14.014-.211.014zm39.011-163.275c-.894 0-1.777.07-2.65.217-7.799 1.311-13.757 8.757-17.709 22.132-12.704 42.999-16.538 124.583-17.081 137.688l208.174-29.588c-5.326-11.793-35.931-78.491-67.91-125.975-10.786-16.016-20.456-23.102-28.744-21.068-12.774 3.14-19.417 27.709-20.159 34.38-.815 7.341-2.059 15.271-6.513 16.431-2.936.763-6.168-1.498-10.183-7.119-6.965-9.749-23.177-27.098-37.225-27.098z" fill="#1d1d1b"/><path d="m582.487 446.991c-9.053 0-15.306-1.479-15.459-1.517-.804-.198-1.295-1.01-1.097-1.814s1.008-1.294 1.814-1.099c.363.088 36.572 8.605 60.406-16.783.567-.604 1.516-.634 2.121-.067.604.567.634 1.517.067 2.121-14.949 15.922-34.463 19.159-47.852 19.159z" fill="#1d1d1b"/><path d="m485.988 410.375c-.492 0-.973-.241-1.26-.684-.451-.695-.252-1.624.443-2.075 27.895-18.08 23.58-55.197 23.533-55.569-.103-.822.479-1.572 1.3-1.676.823-.101 1.572.478 1.676 1.299.049.391 4.618 39.346-24.877 58.463-.253.164-.536.242-.815.242z" fill="#1d1d1b"/><path d="m522.343 252.229c-25.199 0-55.728-15.175-57.251-15.941-.74-.372-1.039-1.274-.667-2.014.372-.739 1.272-1.037 2.014-.667.433.218 43.648 21.697 68.585 13.904 7.24-2.263 11.786-5.853 13.512-10.669 2.881-8.043-2.963-17.107-3.023-17.197-.454-.692-.261-1.622.431-2.077.693-.455 1.621-.264 2.076.428.276.419 6.724 10.378 3.347 19.84-2.055 5.759-7.252 9.978-15.448 12.539-4.173 1.304-8.779 1.854-13.576 1.854z" fill="#1d1d1b"/><path d="m567.744 245.065c-.704 0-1.332-.498-1.471-1.214-.158-.813.373-1.6 1.186-1.758.326-.063 32.688-6.587 44.15-27.75.394-.729 1.304-1 2.033-.604.729.395.999 1.305.604 2.033-12.143 22.419-44.83 28.998-46.215 29.267-.096.017-.192.026-.287.026z" fill="#1d1d1b"/><path d="m505.475 227.6c-12.184 0-25.014-5.529-25.877-5.908-.758-.333-1.104-1.217-.771-1.976s1.217-1.103 1.976-.772c.32.141 32.018 13.795 41.111-1.991.414-.718 1.331-.964 2.049-.551.718.414.964 1.331.551 2.049-4.02 6.976-11.404 9.149-19.039 9.149z" fill="#1d1d1b"/><path d="m573.67 215.964c-2.641 0-5.292-.354-7.933-1.074-.799-.218-1.271-1.042-1.053-1.842.218-.799 1.043-1.271 1.842-1.053 13.25 3.615 26.431-2.676 37.111-17.709.479-.675 1.415-.834 2.091-.354.675.479.834 1.416.354 2.091-9.216 12.974-20.704 19.941-32.412 19.941z" fill="#1d1d1b"/><path d="m1004.152 55.124s-148.83 3.312-120.128 56.299c9.323 17.212 32.868 30.383 119.053 35.142 116.901 6.455 68.491 119.411-43.031 90.365-74.265-19.342-131.603 27.612-135.189 41.238-.717-40.162 42.136-69.203 105.785-55.582 92.158 19.723 124.149-59.937 36.576-67.415-130.169-11.116-160.971-52.406-119.411-78.532 44.724-28.115 96.46-26.177 156.345-21.515z" fill="#ffd07f"/><path d="m449.41 557.153-11.834 74.229 100.048 195.791 95.744-200.094-24.743-75.305-77.456 18.289z" fill="#ffd07f"/><path d="m537.623 828.673c-.563 0-1.079-.315-1.336-.817l-100.047-195.792c-.145-.283-.195-.605-.146-.919l11.834-74.229c.13-.817.904-1.375 1.715-1.245l81.467 12.863 77.169-18.22c.76-.18 1.527.252 1.77.992l24.742 75.305c.121.367.095.767-.072 1.116l-95.744 200.094c-.246.515-.763.845-1.333.853-.005-.001-.012-.001-.019-.001zm-98.489-197.538 98.446 192.655 94.175-196.815-24.125-73.424-76.116 17.972c-.189.045-.386.054-.579.021l-80.279-12.675z" fill="#1d1d1b"/><path d="m495.668 729.636c-3.227-69.567 23.936-83.911 28.598-125.507 6.751-8.68 19.543-2.331 19.543-2.331.277 23.999 32.542 52.534 27.022 118.933-3.763 45.266-37.511 75.603-37.511 75.603z" fill="#f5b02c"/><path d="m533.321 797.834c-.081 0-.162-.006-.242-.02-.449-.074-.84-.347-1.064-.743l-37.652-66.698c-.116-.205-.181-.433-.192-.668-1.994-42.972 7.699-65.468 16.251-85.316 5.438-12.62 10.574-24.541 12.354-40.427.031-.275.137-.536.307-.754 5.936-7.631 16.59-5.138 21.395-2.753.505.25.827.763.833 1.327.094 8.156 4.044 16.899 9.046 27.969 9.105 20.152 21.575 47.752 17.97 91.105-3.769 45.334-37.66 76.287-38.002 76.594-.279.249-.637.384-1.004.384zm-36.171-68.624 36.526 64.703c6.295-6.246 32.421-34.346 35.66-73.306 3.54-42.578-8.745-69.768-17.715-89.622-4.956-10.969-8.909-19.717-9.285-28.195-2.708-1.104-11.578-4.07-16.63 1.941-1.874 16.111-7.051 28.128-12.531 40.844-8.809 20.449-17.919 41.59-16.025 83.635z" fill="#1d1d1b"/><path d="m493.675 557.997s25.076 24.111 29.898 50.152c10.609-3.858 21.218 0 21.218 0s7.716-32.792 25.076-53.045c-14.467-14.467-22.182-14.467-22.182-14.467h-46.295z" fill="#f5b02c"/><path d="m523.573 609.649c-.258 0-.515-.067-.745-.198-.383-.219-.65-.595-.73-1.029-4.676-25.253-29.215-49.106-29.463-49.344-.455-.438-.587-1.113-.331-1.69l7.715-17.36c.241-.542.778-.891 1.371-.891h46.294c.34 0 8.506.169 23.243 14.906.554.554.588 1.441.078 2.037-16.915 19.735-24.678 52.088-24.754 52.413-.098.417-.37.771-.746.975-.376.205-.823.237-1.225.092-.103-.037-10.251-3.616-20.195 0-.166.06-.339.089-.512.089zm10.242-4.724c4.338 0 7.943.786 9.904 1.325 1.742-6.706 9.259-33.042 24.108-51.052-13.036-12.712-20.094-13.06-20.165-13.062h-45.298l-6.898 15.521c4.221 4.233 24.176 25.23 29.243 48.538 3.178-.939 6.296-1.27 9.106-1.27z" fill="#1d1d1b"/><path d="m522.563 540.21c-24.932 29.63-43.761 69.527-58.092 116.991l-35.733-106.049 44.339-43.484c-2.958 19.901 22.322 29.583 49.486 32.542z" fill="#ffd07f"/><path d="m464.471 658.701c-.643 0-1.216-.41-1.421-1.021l-35.733-106.049c-.184-.545-.04-1.147.371-1.55l44.339-43.484c.46-.452 1.157-.559 1.731-.266.574.292.897.919.803 1.557-.745 5.011.432 9.566 3.497 13.538 6.754 8.75 22.618 14.892 44.667 17.293.551.06 1.023.418 1.229.933.207.514.112 1.1-.244 1.524-23.762 28.239-42.669 66.333-57.804 116.458-.188.625-.76 1.056-1.412 1.066-.008.001-.016.001-.023.001zm-34.012-107.137 33.943 100.737c14.643-47.104 32.749-83.458 55.243-110.926-13.558-1.724-34.817-6.27-43.962-18.117-2.746-3.557-4.195-7.512-4.332-11.798z" fill="#1d1d1b"/><path d="m540.619 540.21c24.522 31.913 43.235 71.805 58.092 116.991l35.733-106.049-44.339-43.484c.77 18.826-17.787 30.121-49.486 32.542z" fill="#ffd07f"/><path d="m598.71 658.701c-.002 0-.003 0-.005 0-.646-.002-1.218-.418-1.419-1.031-15.953-48.519-34.877-86.642-57.856-116.545-.335-.437-.405-1.022-.18-1.525.224-.503.706-.842 1.255-.884 31.737-2.423 48.819-13.428 48.101-30.985-.025-.615.327-1.183.89-1.432.563-.25 1.219-.131 1.659.3l44.34 43.484c.411.403.555 1.005.371 1.55l-35.734 106.047c-.206.61-.778 1.021-1.422 1.021zm-55.247-117.228c21.772 28.948 39.881 65.327 55.257 111.003l34.002-100.912-41.191-40.396c-1.414 16.833-18.271 27.496-48.068 30.305z" fill="#1d1d1b"/><path d="m737.718 760.475c49.486-153.836 27.97-199.019 27.97-199.019l-131.244-11.116c-30.738-2.802-68.959 152.173-101.123 243.484-31.463-86.61-76.148-246.447-105.426-243.484l-134.472 17.571 23.667 201.17s61.319 275.399 32.274 408.795c49.486 33.349 125.865 59.168 125.865 59.168l75.305-68.85 71.001 59.168 132.321-65.622c-.001 0-65.624-247.429-16.138-401.265z" fill="#f5b02c"/><path d="m529.106 1187.785 20.28-18.542c-11.742-198.445 17.532-351.088 45.75-447.252 27.034-92.143 57.786-149.855 68.933-169.142l-18.53-1.569c-13.731 24.736-41.321 80.141-66.336 165.154-18.391 62.497-37.22 148.514-45.276 255.105-14.074-107.659-38.09-193.678-60.275-255.723-30.022-83.962-60.93-137.844-75.95-161.531l-18.551 2.424c11.865 17.97 46.283 74.085 78.909 165.565 34.877 97.783 74.348 256.014 71.046 465.511z" fill="#ffd07f"/><path d="m480.741 1226.586c-.064 1.609.352 3.117 1.084 4.426l16.118-14.737c7.458-226.09-34.62-396.24-71.62-499.717-28.048-78.441-56.884-130.657-72.804-156.5l-18.446 2.41c14.088 22.122 45.634 76.365 75.658 160.549 36.962 103.623 79.107 275.101 70.01 503.569z" fill="#ffd07f"/><path d="m675.047 1200.824 16.359-8.113c-13.458-210.986 16.886-373.279 45.669-474.108 10.553-36.963 21.621-68.424 31.807-94.173 1.998-20.318 1.658-34.909.62-44.877-13.822 30.364-31.638 75.055-48.407 133.637-29.592 103.377-60.824 270.423-46.048 487.634z" fill="#ffd07f"/><path d="m295.976 589.622c16.21 28.48 40.063 75.497 63.263 140.105 36.602 101.922 78.8 269.273 74.473 491.431 6.033 2.507 11.66 4.76 16.716 6.73 5.335-228.324-38.04-400.269-75.606-504.638-28.147-78.198-56.749-130.418-72.642-156.482l-8.758 1.144z" fill="#ffd07f"/><path d="m315.895 726.245c34.782 99.6 74.702 261.148 72.938 474.398 5.613 2.842 11.241 5.571 16.786 8.159 2.874-219.644-38.147-385.987-73.814-488.112-9.872-28.268-19.802-53.152-29.195-74.676l7.563 64.284c1.909 5.203 3.817 10.493 5.722 15.947z" fill="#ffd07f"/><path d="m631.356 1222.492 16.275-8.071c-16.283-219.474 16.069-387.452 46.59-490.638 24.642-83.32 51.949-138.597 65.203-162.857l-18.37-1.556c-14.513 27.408-39.565 80.633-62.759 158.836-31.364 105.743-64.631 278.529-46.939 504.286z" fill="#ffd07f"/><path d="m581.613 1194.094 18.117 15.098c-18.854-218.931 12.527-386.336 42.697-489.164 24.761-84.388 52.63-139.881 65.712-163.446l-18.421-1.56c-14.506 27.018-39.976 80.448-63.225 159.448-29.941 101.749-61.057 265.772-44.88 479.624z" fill="#ffd07f"/><path d="m475.228 1238.544c-.161 0-.323-.026-.48-.079-.766-.259-77.138-26.266-126.224-59.345-.509-.343-.758-.962-.627-1.563 14.958-68.693 5.393-175.987-5.265-253.898-11.557-84.485-26.854-153.563-27.007-154.251-.011-.05-.02-.1-.025-.151l-23.667-201.17c-.096-.815.481-1.556 1.295-1.663l134.472-17.571c23.94-2.41 54.606 89.277 84.244 177.963 7.553 22.6 14.715 44.03 21.354 62.529 7.558-21.756 15.325-46.475 23.521-72.559 12.877-40.979 26.192-83.353 39.154-115.137 15.108-37.049 27.372-53.842 38.607-52.803l131.235 11.115c.531.045.999.369 1.228.85.226.475 5.524 11.972 4.717 42.505-.739 27.949-6.997 77.981-32.614 157.618-25.475 79.194-19.735 183.814-10.434 257.633 10.089 80.067 26.429 142.17 26.592 142.788.183.689-.145 1.412-.783 1.728l-132.321 65.622c-.533.265-1.17.189-1.627-.191l-69.995-58.329-74.338 67.966c-.28.257-.643.393-1.012.393zm-124.185-61.346c45.997 30.727 115.433 55.231 123.83 58.139l74.647-68.249c.555-.507 1.397-.526 1.973-.045l70.25 58.542 130.354-64.646c-2.307-8.984-17.008-67.785-26.356-141.954-9.343-74.134-15.098-179.24 10.549-258.968 25.396-78.948 31.667-128.558 32.457-156.274.732-25.713-2.987-37.841-4.105-40.868l-130.325-11.038c-21.909-2.002-49.914 87.175-74.636 165.85-8.708 27.713-16.934 53.889-24.947 76.638-.21.598-.773.999-1.407 1.001-.002 0-.005 0-.007 0-.631 0-1.194-.395-1.41-.988-7.051-19.409-14.707-42.316-22.812-66.57-14.212-42.527-28.908-86.502-43.215-120.539-15.844-37.695-28.548-56.326-37.839-55.395l-132.961 17.374 23.487 199.622c.588 2.662 15.631 71.064 27.034 154.421 10.64 77.776 20.182 184.789 5.439 253.947z" fill="#1d1d1b"/><ellipse cx="317.364" cy="682.277" fill="#ffd07f" rx="43.117" ry="116.359" transform="matrix(.9775 -.2111 .2111 .9775 -136.8546 82.3542)"/><path d="m338.432 797.885c-10.976 0-23.168-9.744-34.769-27.942-12.692-19.91-23.315-47.699-29.912-78.25-6.596-30.55-8.387-60.246-5.041-83.619 3.417-23.867 11.861-38.429 23.776-41.001 11.914-2.571 25.615 7.207 38.576 27.538 12.692 19.91 23.315 47.699 29.912 78.249s8.387 60.247 5.041 83.62c-3.417 23.867-11.861 38.429-23.776 41.001-1.25.27-2.52.404-3.807.404zm-42.223-228.205c-1.051 0-2.08.107-3.088.325-10.445 2.255-18.26 16.286-21.439 38.494-3.297 23.029-1.52 52.35 5.003 82.561s17.003 57.652 29.509 77.27c12.061 18.919 24.972 28.478 35.413 26.218 10.446-2.255 18.26-16.286 21.439-38.494 3.297-23.029 1.52-52.35-5.003-82.562-6.523-30.21-17.003-57.652-29.508-77.27-10.897-17.091-22.487-26.542-32.326-26.542z" fill="#1d1d1b"/><ellipse cx="314.71" cy="682.85" fill="#1d1d1b" rx="29.082" ry="93.202" transform="matrix(.9775 -.2111 .2111 .9775 -137.0353 81.807)"/><path d="m332.419 775.66c-7.769 0-16.622-8.148-25.206-23.312-9.157-16.176-17.111-38.565-22.397-63.044-11.208-51.907-6.857-95.403 9.905-99.023 16.766-3.623 38.673 34.208 49.881 86.114 5.286 24.478 7.278 48.155 5.611 66.668-1.717 19.075-7.228 30.565-15.517 32.355-.746.161-1.507.242-2.277.242zm-35.346-182.628c-.583 0-1.154.06-1.718.182-14.614 3.156-18.097 46.87-7.605 95.458 5.223 24.19 13.063 46.279 22.075 62.199 8.607 15.205 17.443 23.078 24.241 21.615 6.797-1.468 11.595-12.29 13.162-29.691 1.641-18.22-.333-41.576-5.556-65.766-10.088-46.714-30.084-83.997-44.599-83.997z" fill="#1d1d1b"/><ellipse cx="742.654" cy="675.105" fill="#ffd07f" rx="116.359" ry="43.117" transform="matrix(.2111 -.9775 .9775 .2111 -73.9897 1258.5382)"/><path d="m721.585 790.713c-1.287 0-2.557-.134-3.807-.404-11.916-2.573-20.359-17.134-23.776-41.001-3.346-23.373-1.556-53.07 5.041-83.62s17.22-58.34 29.912-78.249c12.961-20.332 26.667-30.113 38.576-27.538 11.916 2.573 20.359 17.134 23.776 41.001 3.346 23.373 1.556 53.069-5.041 83.619s-17.219 58.34-29.912 78.25c-11.6 18.197-23.794 27.942-34.769 27.942zm-3.174-3.337c10.446 2.26 23.353-7.3 35.414-26.218 12.505-19.617 22.985-47.059 29.508-77.27s8.301-59.532 5.003-82.561c-3.179-22.208-10.994-36.239-21.439-38.494-10.442-2.259-23.354 7.3-35.413 26.218-12.505 19.617-22.985 47.059-29.509 77.27-6.523 30.211-8.3 59.532-5.003 82.562 3.179 22.207 10.994 36.238 21.439 38.493z" fill="#1d1d1b"/><ellipse cx="745.308" cy="675.678" fill="#1d1d1b" rx="93.202" ry="29.082" transform="matrix(.2111 -.9775 .9775 .2111 -72.4562 1261.5844)"/><path d="m727.599 768.488c-.771 0-1.531-.08-2.279-.242-8.289-1.79-13.8-13.28-15.517-32.355-1.667-18.513.326-42.189 5.611-66.668s13.24-46.868 22.397-63.043c9.436-16.667 19.201-24.861 27.484-23.07 8.289 1.79 13.799 13.28 15.517 32.355 1.667 18.513-.326 42.19-5.611 66.668-5.286 24.479-13.24 46.868-22.397 63.043-8.583 15.162-17.436 23.311-25.205 23.312zm35.411-182.619c-6.543 0-14.662 7.788-22.588 21.789-9.012 15.919-16.852 38.008-22.075 62.198-5.224 24.19-7.197 47.546-5.556 65.766 1.567 17.402 6.364 28.224 13.162 29.691 6.804 1.47 15.633-6.411 24.241-21.615 9.012-15.919 16.852-38.008 22.075-62.198 5.224-24.19 7.197-47.546 5.556-65.766-1.567-17.402-6.364-28.224-13.162-29.691-.538-.117-1.09-.174-1.653-.174z" fill="#1d1d1b"/><path d="m524.714 383.236s8.248 4.662 24.743 5.379c.359 7.53-.717-24.922-.717-24.922s-16.854-5.2-25.998-.179c.179-7.172 1.972 19.722 1.972 19.722z" fill="#f5b02c"/><path d="m437.726 331.244c-.386 0-.771-.147-1.064-.442-.583-.587-.582-1.534.004-2.118.59-.588 14.75-14.316 40.723-5.9.788.255 1.22 1.101.964 1.889-.255.788-1.1 1.22-1.889.964-24.154-7.826-37.14 4.639-37.682 5.173-.293.29-.675.434-1.056.434z" fill="#1d1d1b"/><path d="m444.064 351.747c-.425 0-.847-.179-1.144-.528-.536-.63-.461-1.574.167-2.111.503-.43 12.542-10.454 30.783-3.433.773.297 1.158 1.166.861 1.939-.298.773-1.166 1.158-1.939.861-16.517-6.357-27.308 2.535-27.759 2.917-.281.238-.626.355-.969.355z" fill="#1d1d1b"/><path d="m450.047 375.567c-.449 0-.893-.2-1.188-.583-.506-.655-.386-1.596.269-2.103.45-.347 11.128-8.471 22.206-4.991.79.249 1.229 1.09.981 1.881s-1.087 1.229-1.881.981c-9.563-3.006-19.374 4.428-19.472 4.503-.273.211-.595.312-.915.312z" fill="#1d1d1b"/><path d="m421.44 134.373-3.227 41.955 202.784-51.099-21.516-36.039c-10.758-20.977-175.89 16.137-178.041 45.183z" fill="#f5b02c"/><path d="m418.212 177.828c-.35 0-.693-.123-.967-.353-.369-.311-.566-.781-.529-1.262l3.228-41.952c1.399-18.898 62.229-37.984 102.774-46.201 34.1-6.911 72.523-10.422 78.097.446l21.469 35.954c.243.407.279.905.098 1.343s-.56.765-1.019.88l-202.784 51.099c-.121.031-.245.046-.367.046zm158.029-93.258c-13.377 0-31.854 2.16-52.926 6.431-48.486 9.827-99.29 28.778-100.378 43.483v.004l-3.067 39.876 198.807-50.097-20.482-34.308c-1.853-3.605-9.799-5.389-21.954-5.389zm-154.801 49.803h.01z" fill="#1d1d1b"/><path d="m684.32 911.15c-75.952 19.375-24.413 256.531 56.964 235.993 56.152-11.535 73.227-13.327 73.227-13.327l-53.936-242.217z" fill="#1d1d1b"/><path d="m731.287 1151.411c-36.804.004-65.728-48.476-78.921-100.472-8.032-31.654-10.234-64.376-6.041-89.776 4.895-29.652 17.777-47.952 37.253-52.92l76.251-19.55c.787-.201 1.622-.075 2.314.349.692.425 1.183 1.112 1.359 1.905l53.936 242.217c.186.834.006 1.708-.493 2.403s-1.271 1.143-2.121 1.232c-.171.018-17.684 1.933-72.873 13.269-3.617.907-7.18 1.343-10.664 1.343zm27.033-256.137-73.255 18.782c-.001 0-.002.001-.003.001-37.358 9.53-41.731 76.878-26.88 135.407 12.577 49.564 39.508 95.942 73.081 95.945 3.044 0 6.139-.38 9.287-1.175.043-.011.086-.021.13-.03 42.924-8.818 62.949-11.945 70.188-12.947zm-74 15.876h.01z" fill="#f5b02c"/><ellipse cx="787.543" cy="1012.707" fill="#1d1d1b" rx="51.646" ry="124.075" transform="matrix(.9762 -.2167 .2167 .9762 -200.7021 194.6783)"/><path d="m809.572 1137.366c-5.827 0-11.881-1.971-18.071-5.891-23.689-15.004-46.166-56.894-57.26-106.719-7.288-32.726-8.829-64.741-4.341-90.148 4.645-26.293 15.303-42.607 30.013-45.935 7.509-1.699 15.474.074 23.672 5.267 23.689 15.004 46.165 56.894 57.26 106.719 7.288 32.726 8.829 64.741 4.341 90.148-4.645 26.293-15.303 42.607-30.013 45.935-1.841.416-3.709.624-5.601.624zm-44.09-243.311c-1.444 0-2.859.156-4.245.47-12.024 2.72-21.292 17.71-25.428 41.126-4.354 24.646-2.831 55.828 4.289 87.801 10.766 48.348 32.203 88.76 54.614 102.954 6.803 4.309 13.241 5.82 19.137 4.483 12.024-2.72 21.292-17.71 25.429-41.126 4.354-24.646 2.831-55.828-4.289-87.801-10.766-48.348-32.203-88.76-54.614-102.954-5.204-3.296-10.195-4.953-14.893-4.953z" fill="#f5b02c"/><path d="m68.294 1116.502c18.394 16.463 43.022 44.462 52.969 82.643 3.443 13.215 18.81 19.119 29.97 11.247 82.571-58.249 255.146-187.427 255.146-187.427l49.486-47.334-98.971-45.183s-1.872 79.56-64.986 50.095c-9.86-4.603-21.292-4.379-30.81.895-42.919 23.784-141.888 77.905-189.113 103.71-11.707 6.397-13.631 22.458-3.691 31.354z" fill="#1d1d1b"/><path d="m140.214 1216.948c-2.57 0-5.164-.456-7.69-1.38-6.978-2.553-12.273-8.41-14.164-15.667-9.704-37.253-33.67-64.699-52.066-81.164-5.454-4.882-8.099-11.857-7.258-19.139.846-7.322 5.041-13.548 11.511-17.083 52.591-28.737 147.09-80.422 189.098-103.701 10.208-5.656 22.744-6.026 33.533-.99 16.205 7.565 29.474 8.269 39.436 2.089 20.181-12.519 21.273-49.167 21.282-49.536.023-1.008.552-1.937 1.407-2.472.854-.536 1.921-.605 2.838-.187l98.972 45.183c.905.413 1.546 1.248 1.712 2.229s-.166 1.98-.884 2.668l-49.486 47.334c-.087.083-.179.162-.276.234-1.726 1.292-173.554 129.87-255.214 187.477-3.851 2.715-8.264 4.105-12.751 4.105zm-69.919-102.681c19.011 17.015 43.79 45.421 53.872 84.122 1.415 5.432 5.212 9.64 10.418 11.544 5.061 1.852 10.498 1.125 14.918-1.992 80.566-56.835 249.048-182.866 254.933-187.269l46.157-44.15-90.981-41.535c-.973 10.885-5.25 38.496-23.836 50.025-11.792 7.316-26.978 6.727-45.137-1.751-9.055-4.227-19.554-3.927-28.086.801-42.021 23.286-136.532 74.978-189.129 103.718-4.737 2.588-7.808 7.146-8.427 12.506-.616 5.321 1.315 10.417 5.298 13.981z" fill="#f5b02c"/><path d="m355.817 928.296 18.288 67.774 441.069-119.411-8.606-94.668z" fill="#1d1d1b"/><path d="m374.105 999.07c-.52 0-1.036-.135-1.494-.399-.69-.396-1.195-1.051-1.402-1.819l-18.288-67.774c-.417-1.543.45-3.142 1.97-3.635l450.75-146.306c.867-.281 1.816-.153 2.578.349s1.253 1.324 1.336 2.233l8.606 94.668c.132 1.451-.798 2.787-2.204 3.167l-441.067 119.412c-.258.07-.522.104-.785.104zm-14.648-68.801 16.763 62.121 435.739-117.968-8.038-88.418z" fill="#f5b02c"/><path d="m840.993 771.233-2.152 97.896-43.031 13.268-8.606-94.669z" fill="#1d1d1b"/><path d="m795.81 885.396c-.588 0-1.171-.173-1.67-.508-.751-.503-1.235-1.319-1.317-2.22l-8.606-94.668c-.128-1.414.751-2.724 2.108-3.14l53.789-16.495c.919-.28 1.921-.105 2.689.476s1.21 1.496 1.189 2.458l-2.151 97.896c-.029 1.292-.881 2.42-2.116 2.801l-43.031 13.268c-.29.088-.588.132-.884.132zm-5.398-95.514 8.051 88.557 37.427-11.54 2.013-91.581z" fill="#f5b02c"/><path d="m382.512 1034.873c-49.544 12.794-193.896 35.414-265.931-12.937-24.751-16.612-38.925-40.352-43.331-72.575-20.766-151.93 188.733-246.227 269.017-276.545-6.321-27.514-15.784-51.017-25.586-65.565-94.851 35.617-340.79 148.36-313.007 351.621 7.184 52.553 32.045 93.415 73.892 121.455 47.747 31.99 111.152 41.375 169.139 41.372 79.348 0 148.533-17.575 153.446-18.854 18.758-4.875 30.004-24.022 25.144-42.785-4.862-18.759-24.031-30.031-42.783-25.187z" fill="#ffd07f"/><path d="m398.848 552.312s-11.834 45.362 1.793 83.373c8.419 23.484 40.162 17.93 63.829 17.93-12.909 20.798-30.122 43.031-17.93 72.436 23.019 55.516 86.779 67.774 86.779 67.774s-47.872-192.564-91.979-256.035c-19.362 8.606-42.492 14.522-42.492 14.522z" fill="#f5b02c"/><path d="m533.32 795.324c-.094 0-.189-.009-.283-.027-.66-.127-16.378-3.222-35.178-13.217-17.386-9.243-40.642-26.366-52.704-55.455-11.384-27.455 2.342-49.054 14.452-68.11.719-1.131 1.435-2.257 2.142-3.378-2.855.044-5.802.147-8.877.255-21.643.762-46.178 1.62-53.642-19.2-13.625-38.007-1.952-83.799-1.832-84.257.137-.528.551-.939 1.08-1.075.23-.059 23.234-5.987 42.255-14.44.658-.292 1.43-.076 1.841.515 43.758 62.969 91.723 254.601 92.202 256.529.124.497-.015 1.022-.367 1.394-.286.3-.681.466-1.089.466zm-68.849-143.209c.544 0 1.046.295 1.311.771s.25 1.058-.037 1.52c-1.175 1.893-2.385 3.798-3.606 5.719-12.29 19.339-24.999 39.337-14.212 65.351 19.971 48.166 71.713 63.463 83.339 66.339-5.64-22.16-49.84-192.485-90.456-252.152-16.89 7.361-36.396 12.723-40.715 13.874-1.502 6.364-10.34 47.334 1.959 81.643 6.724 18.757 29.087 17.974 50.712 17.215 4.09-.145 7.954-.28 11.705-.28z" fill="#1d1d1b"/><path d="m669.481 552.312s11.834 45.362-1.793 83.373c-8.419 23.484-40.162 17.93-63.829 17.93 12.909 20.798 30.122 43.031 17.93 72.436-23.019 55.516-86.779 67.774-86.779 67.774s44.57-190.95 88.676-254.421c19.364 8.605 45.795 12.908 45.795 12.908z" fill="#f5b02c"/><path d="m535.009 795.324c-.404 0-.796-.164-1.082-.46-.352-.366-.495-.886-.379-1.38.447-1.913 45.142-191.958 88.906-254.937.411-.591 1.183-.806 1.841-.515 18.967 8.43 45.165 12.757 45.427 12.8.586.095 1.061.527 1.21 1.102.12.458 11.793 46.25-1.832 84.257-7.464 20.819-31.998 19.958-53.642 19.2-3.076-.108-6.023-.211-8.878-.255.707 1.121 1.422 2.247 2.141 3.377 12.11 19.056 25.836 40.655 14.452 68.111-12.062 29.089-35.318 46.212-52.704 55.455-18.8 9.995-34.519 13.09-35.178 13.217-.093.019-.188.028-.282.028zm89.211-254.051c-40.583 59.651-81.938 228.61-87.193 250.55 11.553-2.859 63.398-18.165 83.376-66.348 10.787-26.014-1.922-46.012-14.213-65.352-1.221-1.921-2.431-3.825-3.605-5.718-.287-.462-.301-1.044-.037-1.52.265-.476.767-.771 1.311-.771 3.751 0 7.615.135 11.705.279 21.629.76 43.988 1.542 50.712-17.215 12.244-34.155 3.54-74.911 1.98-81.555-4.887-.862-26.968-5.012-44.036-12.35z" fill="#1d1d1b"/><path d="m533.679 841.941c-.829 0-1.5-.671-1.5-1.5v-47.693c0-.829.671-1.5 1.5-1.5s1.5.671 1.5 1.5v47.693c0 .829-.671 1.5-1.5 1.5z" fill="#1d1d1b"/><ellipse cx="604.208" cy="260.041" fill="#ffd07f" rx="11.667" ry="7.046" transform="matrix(.0239 -.9997 .9997 .0239 329.8284 857.874)"/><path d="m580.832 415.396c-.79 0-1.452-.618-1.496-1.417l-2.869-51.638c-.046-.827.587-1.535 1.415-1.581.814-.037 1.535.587 1.581 1.415l2.869 51.638c.046.827-.587 1.535-1.415 1.581-.028.001-.056.002-.085.002z" fill="#1d1d1b"/><path d="m550.532 416.651c-.799 0-1.463-.63-1.498-1.436l-2.152-49.844c-.036-.828.606-1.527 1.434-1.563.838-.048 1.527.606 1.563 1.434l2.152 49.844c.036.828-.606 1.527-1.434 1.563-.021.001-.043.002-.065.002z" fill="#1d1d1b"/><path d="m526.324 408.728c-.778 0-1.436-.601-1.495-1.389l-3.223-43.323c-.061-.826.559-1.546 1.385-1.607.831-.056 1.545.559 1.607 1.385l3.223 43.323c.061.826-.559 1.546-1.385 1.607-.037.003-.075.004-.112.004z" fill="#1d1d1b"/><path d="m605.125 407.175c-.807 0-1.474-.642-1.499-1.455l-1.608-53.125c-.025-.828.626-1.52 1.454-1.545.831-.018 1.52.626 1.545 1.454l1.608 53.125c.025.828-.626 1.52-1.454 1.545-.015.001-.03.001-.046.001z" fill="#1d1d1b"/><path d="m624.055 393.559c-.813 0-1.48-.649-1.499-1.465l-1.158-50.454c-.019-.828.637-1.515 1.465-1.534.855-.042 1.515.637 1.534 1.465l1.158 50.454c.019.828-.637 1.515-1.465 1.534-.012 0-.024 0-.035 0z" fill="#1d1d1b"/><path d="m562.537 391.26c-.753 0-1.492-.009-2.222-.025-21.899-.495-37.391-7.77-38.04-8.08-.747-.357-1.064-1.251-.708-1.999.357-.748 1.251-1.065 1.999-.709.154.073 15.654 7.336 36.938 7.791 19.558.415 48.21-5.012 73.539-33.257.553-.617 1.5-.668 2.118-.115.617.553.668 1.501.115 2.118-25.185 28.086-53.602 34.276-73.739 34.276z" fill="#1d1d1b"/><path d="m563.569 417.392c-10.094 0-20.287-1.532-29.942-4.742-19.389-4.622-29.472-22.939-26.396-36.511 1.178-5.2 7.468-21.637 38.958-14.81.018.004.035.008.053.012 19.112 4.872 44.378-1.351 61.441-15.133 11.923-9.631 23.124-7.95 28.937-2.014 8.062 8.233 8.209 26.015-9.635 47.179-14 16.605-38.397 26.019-63.416 26.019zm-30.954-54.646c-12.275 0-20.385 4.906-22.458 14.057-2.764 12.192 7.01 28.871 24.226 32.944.043.01.087.022.129.037 32.5 10.833 71.268 2.087 90.179-20.342 16.63-19.724 16.897-35.882 9.785-43.146-5.844-5.968-15.853-5.065-24.908 2.249-17.743 14.332-44.073 20.792-64.04 15.713-4.685-1.015-9.01-1.512-12.913-1.512z" fill="#1d1d1b"/><path d="m613.645 373.554s60.243-68.85 183.958-76.38c2.152 16.137 4.303 48.41 4.303 48.41s-90.365 29.046-188.261 27.97z" fill="#f5b02c"/><path d="m618.907 375.083c-1.76 0-3.514-.009-5.279-.029-.585-.006-1.114-.353-1.353-.888s-.146-1.159.24-1.6c.152-.174 15.569-17.601 45.948-35.667 27.994-16.648 74.841-37.314 139.047-41.222.809-.053 1.474.52 1.578 1.299 2.134 16 4.292 48.186 4.313 48.509.046.687-.382 1.317-1.038 1.528-.887.285-88.452 28.07-183.456 28.07zm-1.795-3.004c.6.002 1.201.003 1.801.003 88.72 0 170.93-24.354 181.417-27.579-.397-5.768-2.204-31.272-4.033-45.746-62.824 4.079-108.69 24.319-136.178 40.647-23.325 13.856-37.691 27.293-43.007 32.675z" fill="#1d1d1b"/><path d="m777.97 315.731s-7.53 9.323 1.076 16.137 6.278 16.731 22.86 13.716c23.667-4.303 24.384-24.743 21.516-31.198s-3.945-20.081-25.819-17.212-19.633 18.557-19.633 18.557z" fill="#1d1d1b"/><path d="m796.507 347.63c-7.641 0-10.167-3.878-12.815-7.941-1.476-2.265-3.001-4.606-5.577-6.645-2.734-2.165-4.291-4.791-4.626-7.806-.506-4.542 1.963-8.558 2.938-9.943-.099-1.709-.009-6.48 3.414-10.989 3.532-4.654 9.443-7.554 17.568-8.619 20.027-2.627 23.786 8.069 26.271 15.146.379 1.079.737 2.099 1.113 2.944 1.579 3.552 2.441 11.646-1.651 19.388-2.691 5.089-8.512 11.63-20.966 13.895-2.159.392-4.032.57-5.669.57zm-17.368-30.959c-.042.052-3.15 4.001-2.667 8.252.248 2.183 1.428 4.124 3.505 5.768 2.959 2.343 4.696 5.008 6.229 7.36 3.109 4.771 5.161 7.923 15.433 6.057 8.919-1.622 15.438-5.891 18.851-12.346 3.568-6.748 2.852-13.866 1.563-16.767-.425-.956-.802-2.031-1.202-3.168-2.422-6.895-5.437-15.476-23.051-13.166-7.272.954-12.499 3.448-15.534 7.414-3.43 4.482-2.814 9.401-2.808 9.45.053.407-.061.825-.319 1.146z" fill="#1d1d1b"/><path d="m788.997 318.689s-1.076 10.758 3.765 13.985 7.53 7.799 7.53 7.799.807-9.951-1.883-12.371c-2.689-2.421-6.186-6.724-6.455-12.102-.268-5.379-2.419.807-2.957 2.689z" fill="#ffd07f"/><path d="m800.292 303.897s-4.034 5.11-1.076 10.22 3.496 6.455 4.841 9.144 2.152-6.455.538-9.413-1.883-6.993-1.076-9.951c.808-2.958-3.227 0-3.227 0z" fill="#ffd07f"/><path d="m558.422 1003.601c31.377-2.69 72.794-14.523 52.893-68.312 15.778-5.02 27.791-8.337 27.791-8.337s14.432 95.475-80.684 76.649z" fill="#1d1d1b"/><path d="m426.55 258.356s-38.459-6.724-1.883-30.391 135.548-51.637 196.867-52.713-1.076 30.122-1.076 30.122c-1.076 16.316.302 30.447 3.765 44.824 0 0 91.62-30.48 133.576-79.966 41.955-49.486 2.152-75.304-60.244-71.001s-217.666 13.627-371.502 101.84c-116.287 66.682-26.238 90.335 45.095 90.938 6.184-33.653 43.029-23.971 55.938-18.592.002-6.723-.536-15.061-.536-15.061z" fill="#1d1d1b"/><path d="m371.149 293.51c-.004 0-.008 0-.013 0-43.129-.365-95.694-9.2-101.899-32.896-4.334-16.553 14.531-37.023 56.071-60.844 151.547-86.901 303.872-97.352 368.917-101.814l3.227-.222c38.927-2.681 67.449 6.148 76.289 23.628 4.68 9.254 5.912 25.414-14.798 49.84-41.744 49.236-133.326 80.113-134.246 80.419-.398.133-.834.092-1.202-.112-.367-.204-.632-.552-.73-.96-3.636-15.097-4.844-29.483-3.803-45.273.035-.532.349-1.005.826-1.243 12.057-6.03 28.453-16.901 27.155-22.188-.407-1.658-3.707-5.48-25.382-5.092-63.651 1.116-161.017 29.786-196.079 52.473-10.756 6.959-15.937 13.121-14.984 17.816 1.203 5.929 12.182 9.112 16.312 9.837.681.12 1.193.69 1.238 1.381.005.084.541 8.463.541 15.157 0 .501-.25.97-.668 1.248-.417.278-.946.329-1.409.137-2.595-1.081-25.797-10.322-41.227-1.95-6.699 3.635-10.958 10.171-12.66 19.429-.132.712-.753 1.229-1.476 1.229zm339.324-193.236c-4.133 0-8.41.149-12.814.453l-3.228.222c-64.84 4.448-216.682 14.865-367.631 101.423-39.652 22.738-58.554 42.614-54.661 57.481 5.356 20.456 52.752 30.096 97.78 30.644 2.024-9.542 6.708-16.361 13.934-20.282 11.95-6.483 29.443-3.67 41.717.985-.069-4.587-.324-9.446-.448-11.602-3.877-.855-15.972-4.129-17.563-11.956-1.256-6.18 4.073-13.028 16.294-20.936 35.385-22.897 133.543-51.829 197.656-52.954 18.028-.312 27.036 2.028 28.349 7.377 2.235 9.11-21.375 21.846-27.955 25.197-.888 14.584.197 27.973 3.402 41.912 12.223-4.287 93.132-33.896 131.352-78.977 15.55-18.341 20.533-34.437 14.409-46.546-7.189-14.209-29.892-22.441-60.593-22.441z" fill="#1d1d1b"/><path d="m842.068 295.74s60.268-54.561 128.017-25.819c71.001 30.122 140.927 5.379 134.472-64.547 24.743 77.456-50.562 120.487-118.336 95.744s-81.757-33.349-144.153-5.378z" fill="#ffd07f"/><path d="m681.994 1043.191c-1.311 0-2.515-.866-2.887-2.19-18.705-66.636-1.673-100.747-.939-102.167.761-1.471 2.57-2.049 4.043-1.286 1.469.76 2.046 2.565 1.29 4.036-.168.329-16.615 33.677 1.383 97.795.448 1.595-.482 3.251-2.078 3.699-.271.077-.544.113-.812.113z" fill="#f5b02c"/><path d="m699.43 1004.827c-1.384 0-2.629-.963-2.931-2.372-8.231-38.413 3.138-68.279 3.625-69.531.601-1.543 2.338-2.309 3.884-1.707 1.543.601 2.307 2.339 1.708 3.882-.113.291-11.188 29.523-3.35 66.099.347 1.62-.685 3.215-2.305 3.562-.211.046-.423.067-.631.067z" fill="#f5b02c"/><g fill="#cc9758"><path d="m389.537 1056.249c-2.538-.023-4.434 1.776-4.482 4.255-.051 2.646 1.8 4.666 4.281 4.672 2.38.006 4.448-2.019 4.487-4.394.041-2.393-1.963-4.512-4.286-4.533z"/><path d="m392.23 1093.998c.029 3.17 2.753 5.852 5.953 5.862 3.282.01 5.98-2.531 6.055-5.703.078-3.279-2.675-6.15-5.888-6.143-3.24.008-6.149 2.851-6.12 5.984z"/><path d="m393.83 1072.118c-2.988.021-5.197 2.24-5.201 5.223-.004 3.016 2.169 5.182 5.195 5.179 3.047-.003 5.176-2.134 5.176-5.18 0-3.027-2.194-5.243-5.17-5.222z"/><path d="m410.432 1068.289c-2.467.07-4.559 2.164-4.54 4.544.02 2.486 2.306 4.819 4.68 4.653 2.133-.15 4.627-2.007 4.366-4.687-.025-2.508-2.093-4.578-4.506-4.51z"/><path d="m414.953 1084.414c-3.073-.002-5.255 2.134-5.259 5.145-.004 2.773 2.464 5.243 5.239 5.271 1.968-1.794 3.708-3.802 5.213-5.974-.327-2.511-2.506-4.44-5.193-4.442z"/><path d="m406.148 1052.712c-2.304-.027-3.693 1.246-3.722 3.41-.03 2.193 1.329 3.584 3.536 3.62 2.217.036 3.54-1.255 3.62-3.532.073-2.048-1.326-3.473-3.434-3.498z"/><path d="m401.566 1037.265c-1.344-.019-2.338.878-2.31 2.276.027 1.343.822 2.249 2.32 2.241 1.464-.007 2.245-.72 2.275-2.316-.039-1.387-.971-2.181-2.285-2.201z"/><path d="m385.02 1040.629c-1.55-.134-3.213 1.398-3.318 3.056-.13 2.069 1.086 3.516 3.044 3.62 1.81.096 3.345-1.246 3.495-3.055.151-1.822-1.301-3.454-3.221-3.621z"/><path d="m356.171 1064.283c-2.985-.012-5.497 2.383-5.511 5.256-.016 3.084 2.364 5.429 5.501 5.421 3.035-.008 5.42-2.326 5.46-5.31.037-2.844-2.514-5.356-5.45-5.367z"/><path d="m368.433 1044.521c-2.301-.03-4.005 1.638-4.02 3.934-.016 2.369 1.634 4.057 3.931 4.022 2.24-.035 3.847-1.694 3.834-3.961-.016-2.316-1.563-3.968-3.745-3.995z"/><path d="m354.205 1086.259c-.07 3.158 2.973 6.324 6.285 6.327 3.094.003 6.31-2.371 6.197-6.218.082-3.548-2.474-6.193-6.087-6.3-3.24-.095-6.321 2.888-6.395 6.191z"/><path d="m377.271 1076.099c-3.451.015-5.927 2.421-5.908 5.742.019 3.194 2.603 5.795 5.755 5.792 3.311-.003 5.973-2.61 5.949-5.826-.022-3.215-2.569-5.723-5.796-5.708z"/><path d="m373.009 1060.304c-3.16-.052-5.099 1.701-5.152 4.657-.055 3.051 1.813 5.082 4.72 5.13 2.973.05 4.999-1.881 5.039-4.8.039-3.02-1.734-4.94-4.607-4.987z"/><path d="m298.642 1113.602c-3.537.015-6.734 2.949-7.169 6.344 4.714-.357 9.338-.76 13.867-1.198-.956-2.877-3.712-5.158-6.698-5.146z"/><path d="m249.142 1117.504c.022-2.753-2.193-4.89-5.082-4.902-2.65-.011-4.68 2.034-4.713 4.75-.021 1.792.889 3.388 2.243 4.303 1.684.016 3.376.044 5.052.044 1.443-.902 2.487-2.492 2.5-4.195z"/><path d="m283.586 1108.484c-.087-3.237-2.906-5.991-6.105-5.963-3.322.03-6.264 2.927-6.182 6.089.083 3.199 2.93 5.995 6.117 6.009 3.3.014 6.256-2.925 6.17-6.135z"/><path d="m235.552 1100.637c-.059 2.281 1.845 4.155 4.173 4.107 2.474-.049 3.96-1.552 3.95-3.994-.01-2.326-1.68-3.934-4.057-3.906-2.226.027-4.012 1.693-4.066 3.793z"/><path d="m351.695 1048.615c-2.584 0-4.475 1.799-4.479 4.263-.004 2.348 2.048 4.521 4.34 4.593 2.346.075 4.615-2.164 4.598-4.538-.017-2.463-1.933-4.318-4.459-4.318z"/><path d="m297.391 1053.338c1.959-.109 3.645-1.948 3.536-3.856-.016-.289-.141-.556-.236-.83-2.246.222-4.499.439-6.781.639-.02.174-.09.334-.084.514.074 2.01 1.714 3.636 3.565 3.533z"/><path d="m282.001 1118.437c-2.107-.047-3.917.923-5.128 2.448 3.253-.171 6.467-.371 9.653-.587-1.266-1.154-2.939-1.824-4.525-1.861z"/><path d="m235.159 1081.161c-1.329.019-2.729 1.492-2.778 2.924-.052 1.555 1.146 2.827 2.714 2.881 1.637.056 2.971-1.212 2.987-2.838.014-1.546-1.405-2.987-2.923-2.967z"/><path d="m388.016 1098.379c-.126-3.639-2.656-6.258-6.316-6.265-3.833-.007-6.516 2.655-6.556 6.504-.036 3.443 3.04 6.523 6.601 6.396 3.234-.115 6.411-2.608 6.271-6.635z"/><path d="m372.019 1103.008c.024-3.801-3.001-6.814-6.874-6.845-4.037-.033-6.819 2.715-6.99 6.61-.189 4.286 3.29 7.036 6.748 7.201 3.656.175 7.093-3.276 7.116-6.966z"/><path d="m322.385 1116.419c.362-3.501-2.597-7.301-7.196-7.375-4-.064-7.31 3.258-7.328 7.148-.004.789.151 1.544.38 2.268 4.82-.488 9.531-1.012 14.095-1.569.012-.159.049-.31.049-.472z"/><path d="m339.031 1111.88c-.021-4.2-3.132-7.328-7.262-7.303-4.012.024-7.369 3.383-7.339 7.342.014 1.721.634 3.269 1.627 4.504 4.292-.546 8.455-1.115 12.473-1.698.326-.862.506-1.816.501-2.845z"/><path d="m355.558 1107.547c-.142-4.201-2.927-7.189-7.076-7.203-4.269-.329-7.289 3.494-7.378 7.022-.067 2.629 1.55 5.104 3.795 6.406 3.016-.465 5.928-.935 8.749-1.407 1.275-1.38 1.966-3.168 1.91-4.818z"/><path d="m219.961 1105.359c.009 1.702 1.374 2.964 3.165 2.927 1.679-.035 3.104-1.481 3.06-3.104-.045-1.621-1.751-3.203-3.353-3.109-1.632.096-2.88 1.524-2.872 3.286z"/><path d="m255.337 1112.865c-.02 3.274 2.253 5.594 5.483 5.595 3.21.002 5.609-2.381 5.589-5.553-.018-2.766-2.644-5.475-5.38-5.551-3.124-.085-5.673 2.382-5.692 5.509z"/><path d="m256.282 1091.501c-2.497.008-4.658 2.26-4.709 4.91-.05 2.515 2.26 4.747 4.862 4.7 2.582-.047 4.528-2.086 4.522-4.739-.006-2.688-2.109-4.879-4.675-4.871z"/><path d="m246.975 1060.712c-.596.751-1.725 1.562-1.649 2.237.091.802 1.107 1.902 1.925 2.122 1.171.315 2.044-.627 2.091-1.917.048-1.268-.559-2.074-2.367-2.442z"/><path d="m251.823 1076.136c-2.056.001-3.574 1.447-3.606 3.436-.035 2.146 1.405 3.639 3.557 3.689 2.229.052 3.617-1.301 3.635-3.539.018-2.225-1.345-3.587-3.586-3.586z"/><path d="m268.598 1070.955c-2.334.144-4.404 1.706-4.281 4.268.021 2.431 1.916 4.329 4.266 4.272 2.374-.057 4.12-1.964 4.077-4.454-.035-2.132-1.969-4.214-4.062-4.086z"/><path d="m264.373 1055.606c-1.294-.219-3.092 1.259-3.276 2.692-.173 1.341 1.125 2.927 2.579 3.153 1.449.226 3.059-1.087 3.246-2.648.156-1.293-1.176-2.965-2.549-3.197z"/><path d="m205.065 1109.584c-.044.482.708 1.364 1.232 1.473.485.1 1.133-.592 2.189-1.221-.977-.826-1.523-1.641-2.025-1.614-.522.027-1.348.836-1.396 1.362z"/><path d="m273.155 1086.649c-2.894-.073-5.338 2.252-5.362 5.1-.026 3.034 2.109 5.243 5.103 5.279 3.037.037 5.248-2.108 5.273-5.116.022-2.827-2.231-5.193-5.014-5.263z"/><path d="m337.515 1090.67c-.017 3.785 2.752 6.551 6.539 6.533 3.572-.016 6.562-2.91 6.436-6.529-.113-3.287-2.543-6.308-6.436-6.289-3.772.019-6.522 2.618-6.539 6.285z"/><path d="m218.558 1090.033c.482-.498 1.307-.97 1.346-1.501.036-.49-.77-1.042-1.508-1.931-.6.941-1.277 1.544-1.178 1.963.132.564.865.987 1.34 1.469z"/><path d="m314.092 1048.733c1.418-.025 2.503-.786 3.042-1.925-1.95.245-3.91.484-5.899.715.651.763 1.621 1.231 2.857 1.21z"/><path d="m423.579 1068.465c-.01 1.631 1.164 3.001 2.679 3.417.196-2.286.167-4.609-.1-6.952-1.45.455-2.568 1.86-2.579 3.535z"/><path d="m422.685 1054.192c.174-.001.299-.058.451-.083-.668-1.444-1.418-2.831-2.26-4.148-.346.367-.562.88-.573 1.616-.023 1.673.827 2.633 2.382 2.615z"/><path d="m227.502 1117.727c-1.962.017-3.556 1.483-3.894 3.43 2.655.121 5.303.224 7.945.302-.269-2.026-2.063-3.749-4.051-3.732z"/><path d="m323.064 1072.814c-3.234-.025-6.065 2.6-6.102 5.658-.039 3.085 2.811 5.983 5.883 5.983 3.061-.001 5.724-2.69 5.733-5.791.01-3.31-2.362-5.826-5.514-5.85z"/><path d="m318.343 1056.976c-2.432-.006-4.799 2.327-4.893 4.823-.095 2.498 2.291 4.837 4.954 4.856 2.784.02 4.647-1.845 4.697-4.698.048-2.773-2.055-4.974-4.758-4.981z"/><path d="m304.255 1099.594c-.036 3.863 2.578 6.503 6.489 6.553 3.699.048 6.605-2.844 6.611-6.579.005-3.365-3.142-6.433-6.654-6.488-3.554-.054-6.412 2.834-6.446 6.514z"/><path d="m320.81 1095.05c-.059 3.863 2.738 6.759 6.548 6.779 3.616.019 6.585-2.921 6.656-6.592.069-3.553-2.968-6.536-6.662-6.542-3.688-.005-6.486 2.713-6.542 6.355z"/><path d="m280.754 1050.742c-1.95-.032-3.345 1.402-3.322 3.413.022 1.868 1.439 3.36 3.22 3.393 1.786.033 3.357-1.669 3.284-3.557-.066-1.746-1.513-3.223-3.182-3.249z"/><path d="m335.025 1052.787c-2.717.022-4.733 2.068-4.687 4.755.042 2.483 2.293 4.704 4.718 4.656 2.611-.052 4.633-2.205 4.596-4.894-.037-2.688-1.932-4.538-4.627-4.517z"/><path d="m339.63 1068.542c-3.259-.045-5.703 2.261-5.735 5.411-.034 3.321 2.345 5.782 5.595 5.791 3.188.007 5.626-2.39 5.643-5.551.02-3.258-2.269-5.607-5.503-5.651z"/><path d="m306.312 1077.224c-3.016-.08-6.046 2.714-5.917 5.703.15 3.502 3.03 6.059 5.959 5.789 3.198-.004 5.668-2.548 5.633-5.8-.032-3.016-2.619-5.612-5.675-5.692z"/><path d="m285.109 1066.116c-2.528.073-4.686 2.299-4.624 4.77.062 2.456 2.406 4.709 4.784 4.6 2.357-.108 4.543-2.356 4.54-4.67-.003-2.437-2.333-4.767-4.7-4.7z"/><path d="m289.782 1081.818c-3.015-.049-5.68 2.529-5.742 5.551-.063 3.13 2.382 5.555 5.597 5.55 3.172-.005 5.498-2.261 5.556-5.389.052-2.858-2.607-5.666-5.411-5.712z"/><path d="m301.898 1061.707c-2.991-.345-4.931 2.354-5.032 4.649-.107 2.444 2.248 4.705 4.834 4.803 2.576.098 4.744-2.029 4.785-4.697.045-2.837-1.752-4.701-4.587-4.755z"/><path d="m287.783 1103.776c-.196 3.936 2.613 6.687 6.287 6.76 3.45.067 6.465-2.683 6.271-6.348.059-3.537-2.693-6.445-6.163-6.51-3.342-.061-6.232 2.801-6.395 6.098z"/></g><path d="m246.678 1123.199c-71.544 0-128.721-14.005-169.947-41.626-42.218-28.289-67.298-69.503-74.543-122.498-12.036-88.061 25.325-168.82 111.044-240.034 70.704-58.74 157.486-96.133 202.922-113.194.652-.244 1.384-.009 1.771.566 10.247 15.209 19.652 39.29 25.803 66.067.168.731-.23 1.474-.932 1.739-38.401 14.501-111.813 45.796-172.013 92.451-72.593 56.259-104.908 117.657-96.046 182.489 4.344 31.774 18.305 55.173 42.68 71.533 71.571 48.04 215.356 25.477 264.72 12.73 19.538-5.051 39.549 6.735 44.609 26.264 5.059 19.528-6.703 39.541-26.218 44.612-2.966.772-73.57 18.902-153.823 18.902-.009-.001-.019-.001-.027-.001zm69.415-514.124c-45.554 17.185-131.153 54.292-200.943 112.273-84.871 70.509-121.877 150.355-109.99 237.321 7.124 52.108 31.766 92.621 73.241 120.412 40.72 27.283 97.344 41.118 168.276 41.118h.028c79.874 0 150.117-18.037 153.068-18.805 17.917-4.656 28.714-23.029 24.069-40.957-4.646-17.929-23.018-28.745-40.955-24.111-49.726 12.842-194.653 35.512-267.142-13.143-25.128-16.865-39.514-40.946-43.981-73.618-9.017-65.971 23.679-128.303 97.181-185.267 59.875-46.402 132.684-77.662 171.563-92.421-5.939-25.344-14.782-48.085-24.415-62.802zm66.419 425.798h.01z" fill="#1d1d1b"/><path d="m439.728 1099.345s-20.44 66.698-61.319 38.728-30.122-93.593-20.44-123.714c9.682-30.122 30.122-58.092 64.547-31.198 34.424 26.894 17.212 116.184 17.212 116.184z" fill="#f5b02c"/><path d="m397.829 1146.425c-6.559 0-13.343-2.377-20.267-7.115-48.863-33.433-24.015-116.096-21.021-125.411 5.218-16.233 14.991-36.676 31.918-41.88 10.586-3.255 22.354.096 34.98 9.96 34.749 27.147 18.472 113.967 17.762 117.65-.01.053-.023.104-.039.156-.463 1.513-11.616 37.143-34.335 45.095-2.945 1.031-5.947 1.545-8.998 1.545zm-1.339-172.604c-2.453 0-4.837.355-7.149 1.065-16.519 5.079-25.851 27.198-29.944 39.931-2.924 9.098-27.209 89.813 19.859 122.018 9.312 6.372 18.254 8.127 26.575 5.215 20.814-7.281 31.857-41.232 32.44-43.07.584-3.129 16.185-88.963-16.678-114.637-8.963-7.002-17.375-10.522-25.103-10.522zm43.238 125.525h.01z" fill="#1d1d1b"/><path d="m398.848 1110.103s57.185 45.684 139.851 27.97c75.304-16.137 68.312-60.781 47.872-72.077 17.212-18.288 14.523-51.637-15.599-62.395 58.63-8.068 62.395-71.001 4.303-68.85-58.092 2.152-155.988 31.198-173.2 79.607" fill="#f5b02c"/><path d="m500.765 1143.617c-26.106 0-47.963-5.667-63.516-11.481-24.571-9.185-38.745-20.389-39.336-20.861-.647-.517-.753-1.46-.236-2.107s1.46-.753 2.108-.237c.142.113 14.47 11.425 38.627 20.437 22.261 8.305 57.677 16.302 99.973 7.239 50.171-10.75 58.732-33.167 60.084-42.305 1.611-10.895-3.579-21.994-12.624-26.992-.405-.224-.685-.623-.756-1.081-.072-.458.072-.923.39-1.26 8.59-9.127 12.121-22.295 9.214-34.364-2.878-11.951-11.481-21.04-24.225-25.59-.651-.232-1.059-.879-.988-1.567s.603-1.237 1.288-1.332c30.89-4.251 46.025-24.137 44.583-40.688-1.068-12.258-12.192-26.216-40.02-25.177-31.034 1.149-69.898 9.714-101.428 22.35-26.819 10.749-60.806 29.235-70.415 56.261-.277.78-1.137 1.188-1.916.911-.781-.277-1.188-1.135-.911-1.916 17.2-48.374 114.131-78.366 174.558-80.604 29.924-1.093 41.938 14.344 43.12 27.915 1.478 16.963-12.762 37.109-42.013 43.047 11.063 5.34 18.542 14.312 21.282 25.688 2.998 12.447-.337 25.971-8.71 35.747 9.12 5.961 14.231 17.64 12.537 29.092-1.375 9.298-6.942 18.072-16.099 25.372-10.814 8.622-26.399 15.158-46.324 19.427-13.501 2.892-26.32 4.076-38.247 4.076z" fill="#1d1d1b"/><path d="m549.457 1082.132s26.357-3.227 37.114-16.137" fill="#f5b02c"/><path d="m549.455 1083.632c-.747 0-1.394-.557-1.487-1.317-.101-.822.484-1.57 1.306-1.671.258-.032 25.897-3.31 36.145-15.608.53-.636 1.475-.723 2.113-.192.636.53.722 1.476.192 2.113-11.011 13.213-36.984 16.53-38.084 16.665-.062.007-.124.01-.185.01z" fill="#1d1d1b"/><path d="m531.169 1007.904s24.743-4.841 39.804-4.303" fill="#f5b02c"/><path d="m531.167 1009.404c-.703 0-1.331-.497-1.471-1.212-.159-.813.371-1.601 1.184-1.76 1.017-.199 25.086-4.869 40.146-4.33.828.03 1.475.725 1.445 1.553-.029.828-.718 1.456-1.553 1.445-14.705-.518-39.216 4.228-39.462 4.276-.096.019-.193.028-.289.028z" fill="#1d1d1b"/><path d="m415.704 1038.808c-.474 0-.939-.223-1.231-.641-.475-.679-.309-1.614.37-2.089.336-.235 33.997-23.564 65.529-28.581.814-.131 1.586.427 1.717 1.246.13.818-.428 1.587-1.246 1.717-30.858 4.909-63.951 27.846-64.282 28.077-.261.184-.561.271-.857.271z" fill="#1d1d1b"/><path d="m482.4 1085.425c-25.746 0-63.178-11.425-63.553-11.541-.792-.244-1.236-1.083-.993-1.875s1.083-1.237 1.875-.993c.371.114 37.379 11.408 62.671 11.408.829 0 1.5.671 1.5 1.5s-.671 1.501-1.5 1.501z" fill="#1d1d1b"/><path d="m895.452 657.295c-54.946-23.129-117.217-39.714-157.412-48.401-8.292 15.263-15.952 36.532-21.159 60.646-.521 2.414-.968 4.791-1.421 7.17 37.412 7.564 97.511 22.06 152.747 45.31 117.316 49.385 177.799 100.414 173.674 181.543-2.891 56.827-31.711 101.485-85.66 132.729-43.605 25.256-87.717 32.207-88.063 32.259-19.185 2.823-32.451 20.661-29.631 39.847 2.568 17.455 17.562 30.01 34.695 30.01 1.698 0 3.421-.123 5.152-.379 2.258-.332 55.916-8.49 110.856-39.712 76.169-43.292 118.627-109.402 122.783-191.188 3.976-78.216-32.919-172.53-216.561-249.834z" fill="#ffd07f"/><path d="m965.576 1087.612c1.519-.025 3.084-1.613 3.083-3.13-.001-1.686-1.315-2.978-3.055-3.001-1.85-.026-3.028 1.097-3.048 2.904-.021 1.859 1.285 3.254 3.02 3.227z" fill="#cc9758"/><path d="m1018.708 1011.903c-2.497.008-4.657 2.26-4.709 4.91-.049 2.515 2.261 4.747 4.863 4.7 2.581-.047 4.527-2.086 4.521-4.739-.006-2.689-2.108-4.879-4.675-4.871z" fill="#cc9758"/><path d="m1002.046 1017.246c-2.227.027-4.014 1.693-4.067 3.793-.059 2.281 1.845 4.155 4.173 4.108 2.473-.05 3.96-1.553 3.95-3.995-.01-2.326-1.68-3.934-4.056-3.906z" fill="#cc9758"/><path d="m1006.488 1033.003c-2.652-.011-4.681 2.034-4.713 4.75-.033 2.731 2.078 5.042 4.667 5.111 2.632.07 5.107-2.323 5.128-4.959.022-2.753-2.193-4.89-5.082-4.902z" fill="#cc9758"/><path d="m1014.25 996.537c-2.056.001-3.574 1.447-3.606 3.436-.034 2.147 1.405 3.639 3.557 3.689 2.229.052 3.618-1.3 3.635-3.539.018-2.224-1.345-3.587-3.586-3.586z" fill="#cc9758"/><path d="m994.481 1054.019c-2.503-.071-4.954 2.369-4.958 4.935-.004 2.472 2.3 4.692 4.882 4.704 2.712.013 4.773-2.009 4.776-4.686.002-2.579-2.183-4.881-4.7-4.953z" fill="#cc9758"/><path d="m982.271 1084.36c2.389-.007 4.423-2.088 4.355-4.456-.063-2.211-2.234-4.351-4.394-4.333-2.289.018-4.513 2.246-4.456 4.463.062 2.415 2.054 4.333 4.495 4.326z" fill="#cc9758"/><path d="m961.228 1065.643c-1.49-.058-2.39.794-2.411 2.165-.022 1.374.86 2.26 2.348 2.226 1.39-.031 2.094-.8 2.162-2.549-.009-1.037-.702-1.787-2.099-1.842z" fill="#cc9758"/><path d="m977.771 1067.107c2.194.006 3.701-1.515 3.725-3.76.021-2.014-1.789-3.837-3.791-3.82-2.002.019-3.783 1.845-3.774 3.867.011 2.097 1.675 3.707 3.84 3.713z" fill="#cc9758"/><path d="m976.283 1046.646c-.055-1.411-1.746-3.059-3.057-2.978-1.381.086-3.033 1.752-3.021 3.048.014 1.545 1.653 3.112 3.17 3.029 1.467-.079 2.963-1.674 2.908-3.099z" fill="#cc9758"/><path d="m970.138 1104.592c1.991-.038 3.522-1.626 3.47-3.602-.049-1.818-1.841-3.511-3.679-3.476-1.962.038-3.43 1.63-3.38 3.665.052 2.048 1.527 3.451 3.589 3.413z" fill="#cc9758"/><path d="m1026.8 976.008c-1.293-.219-3.091 1.259-3.276 2.692-.172 1.341 1.126 2.927 2.58 3.154 1.448.226 3.058-1.088 3.246-2.648.155-1.295-1.178-2.966-2.55-3.198z" fill="#cc9758"/><path d="m1026.745 995.626c.021 2.431 1.916 4.329 4.266 4.272 2.373-.057 4.119-1.964 4.077-4.454-.036-2.133-1.97-4.215-4.063-4.086-2.334.143-4.403 1.705-4.28 4.268z" fill="#cc9758"/><path d="m1004.09 1075.678c.033-3.119-2.024-5.291-5.062-5.343-3.092-.053-5.394 2.188-5.395 5.251-.002 3.024 2.351 5.353 5.383 5.325 2.791-.026 5.043-2.346 5.074-5.233z" fill="#cc9758"/><path d="m1027.858 1043.734c-3.216-.164-6.433 3.002-6.486 6.382-.048 3.114 2.92 5.983 6.276 6.063 3.581.086 6.166-2.463 6.216-6.128.044-3.318-2.643-6.145-6.006-6.317z" fill="#cc9758"/><path d="m1085.491 993.216c-3.235-.024-6.064 2.6-6.103 5.658-.036 2.975 2.617 5.751 5.561 5.946 1.704-3.092 3.335-6.222 4.883-9.394-.992-1.34-2.527-2.196-4.341-2.21z" fill="#cc9758"/><path d="m988.613 1025.585c-.044-1.62-1.75-3.202-3.353-3.109-1.632.096-2.881 1.523-2.872 3.285.008 1.702 1.374 2.964 3.165 2.927 1.679-.034 3.105-1.48 3.06-3.103z" fill="#cc9758"/><path d="m1017.764 1033.267c-.02 3.275 2.253 5.594 5.483 5.596 3.211.002 5.608-2.382 5.589-5.554-.018-2.766-2.644-5.474-5.38-5.55-3.124-.087-5.673 2.38-5.692 5.508z" fill="#cc9758"/><path d="m1032.175 1060.053c-3.817 0-6.755 2.896-6.753 6.656.001 2.167 1.024 4.032 2.615 5.233 3.464-2.808 6.829-5.676 10.086-8.611-1.143-1.996-3.329-3.279-5.948-3.278z" fill="#cc9758"/><path d="m1041.971 1059.805c1.556-1.462 3.08-2.944 4.587-4.436-2.084.755-3.79 2.404-4.587 4.436z" fill="#cc9758"/><path d="m1003.564 1086.446c-3.218-.056-5.792 2.432-5.813 5.617-.059.398-.038.797.022 1.192 3.041-1.861 6.026-3.76 8.951-5.697-.876-.679-1.955-1.092-3.16-1.112z" fill="#cc9758"/><path d="m1015.594 1065.037c-3.461.015-6.09 2.65-6.078 6.093.012 3.29 2.714 6.119 5.898 6.173 3.342.056 6.365-2.978 6.275-6.295-.09-3.325-2.806-5.984-6.095-5.971z" fill="#cc9758"/><path d="m1011.241 1049.025c-3.264-.053-5.843 2.318-5.837 5.368.006 2.972 2.702 5.712 5.657 5.748 3.01.038 5.454-2.43 5.487-5.54.036-3.259-2.12-5.523-5.307-5.576z" fill="#cc9758"/><path d="m968.725 1031.458c.484.1 1.132-.592 2.188-1.221-.977-.826-1.523-1.641-2.025-1.614-.522.027-1.349.837-1.396 1.364-.044.481.708 1.363 1.233 1.471z" fill="#cc9758"/><path d="m1075.876 982.201c-.095 2.499 2.291 4.837 4.954 4.856 2.784.02 4.647-1.844 4.697-4.698.048-2.773-2.054-4.974-4.758-4.981-2.431-.006-4.799 2.328-4.893 4.823z" fill="#cc9758"/><path d="m1072.017 950.419c.537.093 1.231-.719 2.265-1.398-1.108-.82-1.748-1.623-2.475-1.71-.438-.053-1.486 1.092-1.406 1.546.111.629.969 1.449 1.616 1.562z" fill="#cc9758"/><path d="m1092.765 977.943c.031 1.865 1.31 3.582 2.971 4.301 1.179-2.9 2.274-5.842 3.33-8.802-.497-.159-1.032-.258-1.614-.253-2.717.022-4.733 2.067-4.687 4.754z" fill="#cc9758"/><path d="m1088.523 945.689c.465.076 1.049-.577 1.897-1.104-.839-.705-1.357-1.475-1.841-1.454-.499.021-.965.813-1.445 1.267.458.459.869 1.206 1.389 1.291z" fill="#cc9758"/><path d="m1092.964 964.678c1.878.03 3.607-1.721 3.545-3.59-.062-1.916-1.556-3.321-3.534-3.324-1.947-.003-3.393 1.453-3.379 3.404.013 1.897 1.534 3.482 3.368 3.51z" fill="#cc9758"/><path d="m1072.816 965.605c.006 2.149 1.493 3.567 3.703 3.53 2.041-.035 3.468-1.538 3.429-3.608-.04-2.085-1.445-3.407-3.608-3.393-2.119.013-3.53 1.403-3.524 3.471z" fill="#cc9758"/><path d="m1043.08 977.949c1.786.033 3.357-1.669 3.285-3.557-.067-1.745-1.513-3.221-3.183-3.249-1.95-.032-3.345 1.403-3.321 3.413.022 1.868 1.438 3.361 3.219 3.393z" fill="#cc9758"/><path d="m1042.912 991.287c.062 2.456 2.406 4.709 4.785 4.6 2.357-.107 4.543-2.356 4.54-4.67-.004-2.437-2.334-4.767-4.701-4.699-2.528.072-4.686 2.299-4.624 4.769z" fill="#cc9758"/><path d="m1055.273 954.957c.514-.563 1.313-1.065 1.447-1.707.095-.454-.71-1.095-1.45-2.118-.732 1.04-1.536 1.684-1.474 2.228.066.581.951 1.069 1.477 1.597z" fill="#cc9758"/><path d="m1059.293 986.757c-.107 2.445 2.248 4.705 4.833 4.804 2.577.098 4.744-2.03 4.786-4.698.044-2.837-1.753-4.7-4.587-4.755-2.991-.345-4.931 2.354-5.032 4.649z" fill="#cc9758"/><path d="m1059.818 973.74c1.959-.11 3.645-1.949 3.536-3.856-.105-1.827-1.919-3.473-3.76-3.416-1.871.059-3.413 1.784-3.341 3.737.074 2.013 1.714 3.638 3.565 3.535z" fill="#cc9758"/><path d="m1052.209 1002.221c-3.015-.05-5.68 2.528-5.742 5.551-.063 3.13 2.382 5.556 5.596 5.55 3.173-.005 5.499-2.261 5.557-5.389.052-2.859-2.607-5.667-5.411-5.712z" fill="#cc9758"/><path d="m1073.128 1013.483c-3.554-.055-6.412 2.833-6.446 6.513-.03 3.233 1.811 5.586 4.7 6.305 2.403-3.352 4.706-6.758 6.901-10.222-1.248-1.515-3.131-2.565-5.155-2.596z" fill="#cc9758"/><path d="m1053.813 1041.11c0 1.722.728 3.392 1.854 4.704 3.137-3.48 6.151-7.031 9.035-10.656-1.088-.717-2.337-1.159-3.632-1.154-3.803.016-7.255 3.397-7.257 7.106z" fill="#cc9758"/><path d="m997.522 1007.367c1.638.056 2.971-1.211 2.987-2.838.006-.692-.303-1.344-.751-1.871-1.292 1.349-2.59 2.696-3.942 4.015.465.393 1.038.671 1.706.694z" fill="#cc9758"/><path d="m953.217 1107.052c.65-.116 1.5-.941 1.625-1.587.099-.511-.767-1.208-1.507-2.247-.774 1.056-1.593 1.697-1.62 2.37-.02.505 1.065 1.542 1.502 1.464z" fill="#cc9758"/><path d="m991.474 1097.005c.009-.108.039-.215.039-.323-.001-2.558-2.213-4.744-4.795-4.74-2.615.005-4.796 2.13-4.817 4.694-.013 1.754 1.135 3.413 2.689 4.26 1.544-.843 3.091-1.699 4.639-2.579.758-.431 1.493-.877 2.245-1.312z" fill="#cc9758"/><path d="m1068.739 997.625c-3.016-.08-6.046 2.714-5.917 5.703.151 3.502 3.03 6.059 5.959 5.79 3.198-.005 5.667-2.549 5.633-5.8-.032-3.017-2.619-5.611-5.675-5.693z" fill="#cc9758"/><path d="m1035.583 1007.052c-2.895-.073-5.339 2.251-5.363 5.099-.026 3.034 2.109 5.243 5.103 5.279 3.038.037 5.248-2.108 5.273-5.116.022-2.827-2.231-5.193-5.013-5.262z" fill="#cc9758"/><path d="m1056.606 1018.081c-3.342-.062-6.233 2.801-6.397 6.098-.196 3.936 2.613 6.687 6.288 6.759 3.45.067 6.465-2.683 6.272-6.348.058-3.538-2.694-6.446-6.163-6.509z" fill="#cc9758"/><path d="m1039.908 1022.923c-3.323.029-6.265 2.927-6.182 6.089.083 3.199 2.93 5.995 6.117 6.009 3.301.013 6.256-2.925 6.17-6.135-.087-3.238-2.907-5.991-6.105-5.963z" fill="#cc9758"/><path d="m990.044 1046.372c2.051-.025 3.966-1.922 3.989-3.954.026-2.26-1.935-4.308-4.104-4.289-2.244.02-4.009 1.934-3.96 4.296.046 2.251 1.826 3.975 4.075 3.947z" fill="#cc9758"/><path d="m1037.74 1045.597c-.106 4.068 3.155 6.704 6.665 6.759 3.696.057 6.581-2.963 6.588-6.642.287-4.117-3.335-6.801-6.564-6.874-3.723-.085-6.59 2.945-6.689 6.757z" fill="#cc9758"/><path d="m873.221 1139.908c-18.001 0-33.555-13.453-36.179-31.292-2.936-19.972 10.925-38.611 30.897-41.549.43-.066 44.204-6.979 87.529-32.073 53.481-30.973 82.05-75.219 84.914-131.508 3.797-74.658-46.254-126.832-172.757-180.084-54.403-22.9-112.938-37.232-152.462-45.222-.805-.163-1.33-.943-1.176-1.75l.093-.49c.416-2.188.846-4.449 1.335-6.716 5.044-23.358 12.611-45.038 21.308-61.045.318-.586.984-.894 1.635-.75 26.258 5.675 94.187 21.76 157.677 48.485 83.815 35.282 144.128 77.361 179.263 125.068 28.093 38.145 40.592 79.433 38.213 126.224-4.184 82.321-46.903 148.858-123.54 192.417-55.18 31.359-109.109 39.559-111.378 39.892-1.779.26-3.586.393-5.372.393zm-156.011-464.374c39.631 8.073 97.611 22.386 151.579 45.103 62.907 26.481 105.122 51.643 132.852 79.186 30.117 29.913 43.768 63.871 41.737 103.816-2.918 57.369-31.99 102.437-86.406 133.951-43.985 25.476-88.149 32.378-88.59 32.444-18.342 2.698-31.067 19.81-28.373 38.146 2.41 16.377 16.688 28.728 33.211 28.728 1.64 0 3.3-.122 4.933-.362 2.247-.331 55.637-8.449 110.333-39.533 75.702-43.027 117.897-108.714 122.026-189.96 5.28-103.825-65.258-185.069-215.644-248.375-62.389-26.262-129.11-42.218-156.043-48.079-8.34 15.664-15.597 36.649-20.479 59.257-.409 1.901-.78 3.812-1.136 5.678z" fill="#1d1d1b"/><path d="m919.548 1019.513s12.649-48.105 51.9-23.702 44.006 80.366 18.564 121.985-49.532 24.741-60.286 9.157c-10.755-15.583-10.178-107.44-10.178-107.44z" fill="#f5b02c"/><path d="m956.434 1145.421c-14.233 0-24.256-12.273-27.943-17.616-10.897-15.791-10.466-104.532-10.443-108.302.001-.126.018-.25.049-.372.249-.946 6.282-23.235 23.028-29.898 9.138-3.636 19.606-1.851 31.114 5.304 37.909 23.569 46.456 79.214 19.051 124.041-10.682 17.474-22.179 26.501-34.17 26.833-.229.007-.459.01-.686.01zm-35.387-125.7c-.02 4.782-.218 91.701 9.913 106.38 3.468 5.026 12.942 16.706 26.078 16.312 10.912-.302 21.575-8.847 31.694-25.399 26.548-43.427 18.439-97.227-18.076-119.929-10.651-6.622-20.209-8.327-28.411-5.069-14.602 5.802-20.607 25.631-21.198 27.705z" fill="#1d1d1b"/><path d="m950.628 1059.555s1.99-40.402-37.637-60.734c-39.626-20.332-52.335 21.23-89.23-22.886-50.244-60.076-74.864.62-58.611 30.893 9.655 17.983 38.728 38.19 75.239 47.012-.055 32.779-9.723 44.981-22.526 63.255-17.705 17.318-38.847 12.603-71.001 21.516-48.603 13.473-29.046 76.38 43.494 52.932 0 0 3.91 40.82 64.994 9.311 35.896-.858 91.377-45.58 97.129-93.563" fill="#f5b02c"/><path d="m816.48 1214.316c-5.663 0-10.601-1.142-14.793-3.43-8.996-4.909-11.74-13.619-12.528-17.392-26.081 8.045-48.372 5.794-61.339-6.254-7.564-7.028-10.726-16.779-8.458-26.085 2.738-11.23 12.615-19.975 27.099-23.989 11.264-3.123 21.235-4.593 30.032-5.89 16.22-2.392 29.042-4.283 40.223-15.156l1.633-2.324c11.743-16.694 20.269-28.815 20.534-58.78-33.76-8.424-64.514-27.845-75.055-47.477-9.706-18.078-5.224-45.294 9.049-54.946 7.947-5.374 25.275-9.614 52.034 22.382 20.564 24.587 33.165 21.859 47.754 18.701 11.07-2.396 23.618-5.112 41.01 3.813 40.024 20.536 38.471 61.728 38.45 62.142-.041.828-.737 1.486-1.571 1.424-.827-.04-1.465-.743-1.425-1.57.019-.395 1.438-39.694-36.823-59.326-16.438-8.434-27.911-5.951-39.006-3.549-14.895 3.224-28.964 6.27-50.69-19.708-18.712-22.373-35.778-30.125-48.053-21.821-12.897 8.721-16.978 34.481-8.086 51.042 10.286 19.159 40.827 38.183 74.27 46.263.674.163 1.149.767 1.148 1.46-.053 31.774-8.875 44.318-21.087 61.678l-1.71 2.436c-.053.076-.113.146-.18.211-11.901 11.64-25.175 13.598-41.981 16.076-8.711 1.285-18.584 2.741-29.668 5.813-13.406 3.716-22.514 11.666-24.986 21.809-2.007 8.235.828 16.9 7.585 23.177 5.877 5.46 23.494 16.885 60.033 5.073.434-.14.905-.076 1.285.174s.626.658.669 1.11c.011.111 1.246 11.404 11.311 16.872 11.005 5.979 28.814 2.952 51.503-8.751.202-.104.425-.161.652-.167 17.232-.412 39.8-11.417 58.896-28.722 20.792-18.841 34.198-41.993 36.779-63.521.099-.822.839-1.409 1.668-1.311.822.099 1.409.845 1.311 1.668-2.666 22.234-16.422 46.067-37.743 65.386-19.48 17.651-42.619 28.923-60.493 29.488-15.528 7.973-28.658 11.971-39.253 11.971z" fill="#1d1d1b"/><path d="m877.569 1132.694s-33.349 45.721-87.213 58.849" fill="#f5b02c"/><path d="m790.355 1193.043c-.676 0-1.289-.46-1.457-1.146-.196-.805.297-1.616 1.103-1.813 52.684-12.841 86.026-57.823 86.356-58.276.49-.668 1.427-.814 2.096-.327.669.488.816 1.426.328 2.095-.337.462-34.294 46.316-88.07 59.423-.119.03-.239.044-.356.044z" fill="#1d1d1b"/><path d="m896.395 1157.975s-9.682 25.819-41.045 42.879" fill="#f5b02c"/><path d="m855.352 1202.354c-.532 0-1.047-.284-1.319-.784-.396-.728-.126-1.639.601-2.035 30.46-16.569 40.263-41.836 40.358-42.089.292-.775 1.157-1.167 1.932-.875s1.167 1.155.876 1.93c-.403 1.075-10.24 26.54-41.733 43.67-.228.124-.473.183-.715.183z" fill="#1d1d1b"/><path d="m886.748 1107.222c-.553 0-1.084-.307-1.346-.836-.367-.743-.062-1.643.681-2.009 23.038-11.373 35.891-39.431 36.018-39.713.34-.756 1.23-1.091 1.983-.752.755.34 1.092 1.228.752 1.983-.536 1.191-13.407 29.315-37.425 41.172-.213.104-.439.155-.663.155z" fill="#1d1d1b"/><path d="m915.32 1144.774c-.37 0-.741-.136-1.031-.411-.601-.57-.627-1.519-.057-2.121 15.69-16.56 22.55-54.161 22.618-54.539.146-.815.928-1.356 1.74-1.213.815.146 1.358.925 1.213 1.74-.282 1.579-7.091 38.869-23.393 56.075-.296.312-.693.469-1.09.469z" fill="#1d1d1b"/><path d="m817.427 808.095 191.32-55.02 11.254 32.512-193.821 57.521c-15.006 4.169-25.843-28.343-8.753-35.013z" fill="#1d1d1b"/><path d="m823.583 846.461c-6.881 0-13.288-5.65-16.343-14.824-3.235-9.712-1.768-22.096 9.096-26.336.086-.033.173-.063.262-.088l191.32-55.021c1.531-.439 3.142.395 3.664 1.902l11.254 32.512c.268.774.208 1.624-.167 2.352s-1.03 1.272-1.815 1.505l-193.821 57.521c-1.154.321-2.308.477-3.45.477zm-5.187-35.523c-7.1 2.867-7.817 11.736-5.464 18.802 2.046 6.143 6.815 12.043 12.444 10.477l190.763-56.614-9.297-26.859z" fill="#f5b02c"/><path d="m1020.769 709.515 9.653 33.557 53.353-18.34-8.282-30.514c-4.155-15.307-20.038-24.248-35.279-19.86-15.078 4.34-23.783 20.079-19.445 35.157z" fill="#1d1d1b"/><path d="m1030.422 746.072c-.478 0-.953-.114-1.385-.339-.729-.379-1.271-1.042-1.499-1.832l-9.653-33.557c-4.787-16.643 4.856-34.08 21.497-38.87 8.151-2.346 16.71-1.347 24.1 2.813 7.391 4.16 12.684 10.959 14.905 19.144l8.282 30.514c.414 1.524-.426 3.109-1.92 3.623l-53.353 18.34c-.316.109-.646.164-.974.164zm-6.77-37.387 8.78 30.523 47.712-16.401-7.546-27.804c-1.797-6.621-6.08-12.122-12.059-15.487-5.978-3.366-12.903-4.173-19.496-2.276-13.463 3.876-21.264 17.982-17.391 31.445z" fill="#f5b02c"/><path d="m993.742 736.819c-30.845 11.254-9.17 78.779 21.258 71.276l137.967-39.598-20.424-70.443z" fill="#1d1d1b"/><path d="m1010.161 811.697c-15.132 0-26.824-15.538-31.713-31.579-5.404-17.733-3.245-39.729 14.266-46.118.073-.026.146-.05.221-.071l138.801-38.764c1.585-.441 3.23.474 3.688 2.054l20.424 70.442c.222.766.13 1.588-.255 2.286s-1.032 1.213-1.798 1.434l-137.968 39.598c-.036.01-.073.02-.109.029-1.897.468-3.752.689-5.557.689zm-15.496-72.021c-13.742 5.106-15.072 23.618-10.478 38.694 4.348 14.268 14.441 27.29 26.198 27.292 1.264 0 2.546-.15 3.843-.466l135.019-38.752-18.759-64.7z" fill="#f5b02c"/></svg></g><!--ITEM: Text 2--><g transform="translate(191.0 1174.0) rotate(0.0 550.0 196.0)  scale(1.0 1.0)"><svg width="1100.0" height="392.0" viewBox="0.0 0.0 1100.0 392.0"><g transform="translate(70 70)">
      <path fill="#FFFFFF" stroke="#FFFFFF" d="M68.82 64.12L71.83 77.07L72.60 77.07L75.89 65.03L82.61 37.10L90.52 38.36L82.89 66.15L78.20 85.26L65.39 86.17L61.40 67.48L59.02 58.24L56.92 66.15L52.23 85.26L39.63 86.17L35.43 67.48L28.15 38.85L37.25 37.10L42.92 64.12L46.07 77.07L46.84 77.07L50.55 64.12L55.66 45.22L54.05 38.85L63.29 37.10L68.82 64.12ZM124.47 38.92L134.41 37.17L133.43 67.62L134.27 85.82L124.47 85.82L125.31 68.81L125.17 65.10L106.34 65.10L106.27 67.62L107.11 85.82L97.31 85.82L98.15 68.81L97.31 38.92L107.25 37.17L106.55 57.68L124.96 57.68L124.47 38.92ZM171.23 85.82L145.61 85.82L146.45 68.81L145.61 37.52L171.86 37.52L171.09 45.01L155.34 45.01L154.92 57.40L168.92 57.40L168.15 64.82L154.64 64.82L154.57 67.62L155.06 78.40L172.00 78.40L171.23 85.82ZM208.54 38.43L217.08 37.38L216.17 67.62L216.94 84.28L208.68 86.03L187.82 52.29L187.82 67.62L188.80 85.82L180.05 85.82L180.89 68.81L180.05 37.73L188.45 37.31L209.24 71.54L208.54 38.43ZM248.09 47.74L253.27 58.17L254.11 58.17L259.29 48.65L264.54 37.10L273.08 38.36L266.64 50.05L257.54 67.83L258.31 85.82L248.51 85.82L249.21 69.02L240.39 51.10L233.67 38.85L243.54 37.10L248.09 47.74ZM298.49 36.82L298.49 36.82Q306.75 36.82 312.11 43.12Q317.46 49.42 317.46 59.15L317.46 59.15Q317.46 71.47 311.09 79.03Q304.72 86.59 294.36 86.59L294.36 86.59Q286.31 86.59 280.85 80.12Q275.39 73.64 275.39 64.12L275.39 64.12Q275.39 52.22 281.90 44.52Q288.41 36.82 298.49 36.82ZM307.94 63.07L307.94 63.07Q307.94 45.36 296.32 45.36L296.32 45.36Q291.00 45.36 287.96 49.32Q284.91 53.27 284.91 61.15Q284.91 69.02 288.17 74.09Q291.42 79.17 296.78 79.17Q302.13 79.17 305.04 74.87Q307.94 70.56 307.94 63.07ZM339.93 86.59L339.93 86.59Q333.63 86.59 329.33 82.74Q325.02 78.89 325.02 73.22L325.02 73.22L324.32 38.92L334.40 37.17L333.28 67.83Q333.28 72.73 335.56 75.46Q337.83 78.19 342.59 78.19Q347.35 78.19 349.45 75.53Q351.55 72.87 351.55 66.36L351.55 66.36L350.71 38.92L360.51 37.17L359.74 67.97Q359.74 76.23 354.21 81.41Q348.68 86.59 339.93 86.59ZM383.26 67.20L383.26 67.20L379.27 67.20L379.27 67.62L380.11 85.82L370.73 85.82L371.57 68.81L370.73 37.52L385.92 37.52Q392.64 37.52 396.63 41.16Q400.62 44.80 400.62 50.82L400.62 50.82Q400.62 55.37 398.28 59.12Q395.93 62.86 391.94 65.03L391.94 65.03L404.12 82.25L395.65 86.59L384.73 67.13Q384.24 67.20 383.26 67.20ZM383.40 44.59L383.40 44.59L379.97 44.59L379.48 60.41L384.24 60.41Q387.74 60.41 389.67 58.10Q391.59 55.79 391.59 51.52L391.59 51.52Q391.59 44.59 383.40 44.59ZM438.91 86.59L438.91 86.59Q429.74 86.59 424.14 80.43Q418.54 74.27 418.54 64.12L418.54 64.12Q418.54 52.57 425.54 44.66Q432.54 36.75 442.76 36.75L442.76 36.75Q446.82 36.75 450.29 37.48Q453.75 38.22 455.22 38.99L455.22 38.99L456.62 39.76L452.56 49.49Q450.46 48.09 446.89 46.87Q443.32 45.64 440.59 45.64L440.59 45.64Q434.92 45.64 431.49 49.63Q428.06 53.62 428.06 60.20L428.06 60.20Q428.06 69.09 431.32 74.06Q434.57 79.03 440.38 79.03L440.38 79.03Q444.16 79.03 447.52 77.98L447.52 77.98L447.52 67.13L438.49 67.13L439.19 60.06L455.99 60.06L455.36 71.47L455.85 83.58Q445.56 86.59 438.91 86.59ZM486.16 36.82L486.16 36.82Q494.42 36.82 499.78 43.12Q505.13 49.42 505.13 59.15L505.13 59.15Q505.13 71.47 498.76 79.03Q492.39 86.59 482.03 86.59L482.03 86.59Q473.98 86.59 468.52 80.12Q463.06 73.64 463.06 64.12L463.06 64.12Q463.06 52.22 469.57 44.52Q476.08 36.82 486.16 36.82ZM495.61 63.07L495.61 63.07Q495.61 45.36 483.99 45.36L483.99 45.36Q478.67 45.36 475.63 49.32Q472.58 53.27 472.58 61.15Q472.58 69.02 475.84 74.09Q479.09 79.17 484.45 79.17Q489.80 79.17 492.71 74.87Q495.61 70.56 495.61 63.07ZM512.83 38.92L522.77 37.17L521.79 67.62L522.63 85.82L512.83 85.82L513.67 68.81L512.83 38.92ZM562.46 38.43L571.00 37.38L570.09 67.62L570.86 84.28L562.60 86.03L541.74 52.29L541.74 67.62L542.72 85.82L533.97 85.82L534.81 68.81L533.97 37.73L542.37 37.31L563.16 71.54L562.46 38.43ZM599.07 86.59L599.07 86.59Q589.90 86.59 584.30 80.43Q578.70 74.27 578.70 64.12L578.70 64.12Q578.70 52.57 585.70 44.66Q592.70 36.75 602.92 36.75L602.92 36.75Q606.98 36.75 610.45 37.48Q613.91 38.22 615.38 38.99L615.38 38.99L616.78 39.76L612.72 49.49Q610.62 48.09 607.05 46.87Q603.48 45.64 600.75 45.64L600.75 45.64Q595.08 45.64 591.65 49.63Q588.22 53.62 588.22 60.20L588.22 60.20Q588.22 69.09 591.48 74.06Q594.73 79.03 600.54 79.03L600.54 79.03Q604.32 79.03 607.68 77.98L607.68 77.98L607.68 67.13L598.65 67.13L599.35 60.06L616.15 60.06L615.52 71.47L616.01 83.58Q605.72 86.59 599.07 86.59ZM644.29 44.59L631.90 45.57L632.67 37.52L665.92 37.52L665.15 45.57L652.97 44.52L652.69 67.62L653.53 85.82L643.73 85.82L644.57 68.81L644.29 44.59ZM691.12 36.82L691.12 36.82Q699.38 36.82 704.74 43.12Q710.09 49.42 710.09 59.15L710.09 59.15Q710.09 71.47 703.72 79.03Q697.35 86.59 686.99 86.59L686.99 86.59Q678.94 86.59 673.48 80.12Q668.02 73.64 668.02 64.12L668.02 64.12Q668.02 52.22 674.53 44.52Q681.04 36.82 691.12 36.82ZM700.57 63.07L700.57 63.07Q700.57 45.36 688.95 45.36L688.95 45.36Q683.63 45.36 680.59 49.32Q677.54 53.27 677.54 61.15Q677.54 69.02 680.80 74.09Q684.05 79.17 689.41 79.17Q694.76 79.17 697.67 74.87Q700.57 70.56 700.57 63.07ZM723.88 79.45L729.34 71.89Q735.29 77.84 741.24 77.84L741.24 77.84Q744.32 77.84 746.18 76.41Q748.03 74.97 748.03 72.70Q748.03 70.42 745.79 68.84Q743.55 67.27 740.37 66.08Q737.18 64.89 734.03 63.39Q730.88 61.88 728.64 59.08Q726.40 56.28 726.40 52.29L726.40 52.29Q726.40 45.99 731.65 41.41Q736.90 36.82 744.11 36.82L744.11 36.82Q747.40 36.82 750.48 37.52Q753.56 38.22 756.43 39.55L756.43 39.55L751.67 49.77Q749.71 48.23 746.32 46.94Q742.92 45.64 740.37 45.64Q737.81 45.64 736.24 46.87Q734.66 48.09 734.66 50.12Q734.66 52.15 736.90 53.73Q739.14 55.30 742.33 56.49Q745.51 57.68 748.70 59.12Q751.88 60.55 754.12 63.35Q756.36 66.15 756.36 70.14L756.36 70.14Q756.36 76.72 751.11 81.66Q745.86 86.59 738.86 86.59L738.86 86.59Q733.61 86.59 729.55 84.07L729.55 84.07Q725.98 81.90 724.51 80.22L724.51 80.22L723.88 79.45ZM790.94 38.92L800.88 37.17L799.90 67.62L800.74 85.82L790.94 85.82L791.78 68.81L791.64 65.10L772.81 65.10L772.74 67.62L773.58 85.82L763.78 85.82L764.62 68.81L763.78 38.92L773.72 37.17L773.02 57.68L791.43 57.68L790.94 38.92ZM831.68 36.82L831.68 36.82Q839.94 36.82 845.30 43.12Q850.65 49.42 850.65 59.15L850.65 59.15Q850.65 71.47 844.28 79.03Q837.91 86.59 827.55 86.59L827.55 86.59Q819.50 86.59 814.04 80.12Q808.58 73.64 808.58 64.12L808.58 64.12Q808.58 52.22 815.09 44.52Q821.60 36.82 831.68 36.82ZM841.13 63.07L841.13 63.07Q841.13 45.36 829.51 45.36L829.51 45.36Q824.19 45.36 821.15 49.32Q818.10 53.27 818.10 61.15Q818.10 69.02 821.36 74.09Q824.61 79.17 829.97 79.17Q835.32 79.17 838.23 74.87Q841.13 70.56 841.13 63.07ZM877.95 36.82L877.95 36.82Q886.21 36.82 891.57 43.12Q896.92 49.42 896.92 59.15L896.92 59.15Q896.92 71.47 890.55 79.03Q884.18 86.59 873.82 86.59L873.82 86.59Q865.77 86.59 860.31 80.12Q854.85 73.64 854.85 64.12L854.85 64.12Q854.85 52.22 861.36 44.52Q867.87 36.82 877.95 36.82ZM887.40 63.07L887.40 63.07Q887.40 45.36 875.78 45.36L875.78 45.36Q870.46 45.36 867.42 49.32Q864.37 53.27 864.37 61.15Q864.37 69.02 867.63 74.09Q870.88 79.17 876.24 79.17Q881.59 79.17 884.50 74.87Q887.40 70.56 887.40 63.07ZM911.41 44.59L899.02 45.57L899.79 37.52L933.04 37.52L932.27 45.57L920.09 44.52L919.81 67.62L920.65 85.82L910.85 85.82L911.69 68.81L911.41 44.59Z" stroke-width="0"/><path fill="#FFFFFF" stroke="#FFFFFF" d="M196.19 205.45L201.65 197.89Q207.60 203.84 213.55 203.84L213.55 203.84Q216.63 203.84 218.48 202.41Q220.34 200.97 220.34 198.69Q220.34 196.42 218.10 194.84Q215.86 193.27 212.67 192.08Q209.49 190.89 206.34 189.38Q203.19 187.88 200.95 185.08Q198.71 182.28 198.71 178.29L198.71 178.29Q198.71 171.99 203.96 167.40Q209.21 162.82 216.42 162.82L216.42 162.82Q219.71 162.82 222.79 163.52Q225.87 164.22 228.74 165.55L228.74 165.55L223.98 175.77Q222.02 174.23 218.62 172.94Q215.23 171.64 212.67 171.64Q210.12 171.64 208.54 172.86Q206.97 174.09 206.97 176.12Q206.97 178.15 209.21 179.72Q211.45 181.30 214.63 182.49Q217.82 183.68 221.00 185.11Q224.19 186.55 226.43 189.35Q228.67 192.15 228.67 196.14L228.67 196.14Q228.67 202.72 223.42 207.66Q218.17 212.59 211.17 212.59L211.17 212.59Q205.92 212.59 201.86 210.07L201.86 210.07Q198.29 207.90 196.82 206.22L196.82 206.22L196.19 205.45ZM263.25 164.92L273.19 163.17L272.21 193.62L273.05 211.82L263.25 211.82L264.09 194.81L263.95 191.10L245.12 191.10L245.05 193.62L245.89 211.82L236.09 211.82L236.93 194.81L236.09 164.92L246.03 163.17L245.33 183.68L263.74 183.68L263.25 164.92ZM303.99 162.82L303.99 162.82Q312.25 162.82 317.60 169.12Q322.96 175.42 322.96 185.15L322.96 185.15Q322.96 197.47 316.59 205.03Q310.22 212.59 299.86 212.59L299.86 212.59Q291.81 212.59 286.35 206.11Q280.89 199.64 280.89 190.12L280.89 190.12Q280.89 178.22 287.40 170.52Q293.91 162.82 303.99 162.82ZM313.44 189.07L313.44 189.07Q313.44 171.36 301.82 171.36L301.82 171.36Q296.50 171.36 293.45 175.31Q290.41 179.27 290.41 187.14Q290.41 195.02 293.66 200.09Q296.92 205.17 302.27 205.17Q307.63 205.17 310.53 200.86Q313.44 196.56 313.44 189.07ZM350.26 162.82L350.26 162.82Q358.52 162.82 363.87 169.12Q369.23 175.42 369.23 185.15L369.23 185.15Q369.23 197.47 362.86 205.03Q356.49 212.59 346.13 212.59L346.13 212.59Q338.08 212.59 332.62 206.11Q327.16 199.64 327.16 190.12L327.16 190.12Q327.16 178.22 333.67 170.52Q340.18 162.82 350.26 162.82ZM359.71 189.07L359.71 189.07Q359.71 171.36 348.09 171.36L348.09 171.36Q342.77 171.36 339.72 175.31Q336.68 179.27 336.68 187.14Q336.68 195.02 339.93 200.09Q343.19 205.17 348.54 205.17Q353.90 205.17 356.80 200.86Q359.71 196.56 359.71 189.07ZM383.72 170.59L371.33 171.57L372.10 163.52L405.35 163.52L404.58 171.57L392.40 170.52L392.12 193.62L392.96 211.82L383.16 211.82L384.00 194.81L383.72 170.59ZM436.08 212.59L436.08 212.59Q431.11 212.59 421.73 211.82L421.73 211.82L422.57 194.81L421.73 163.52L440.42 163.52Q449.87 163.52 455.19 169.19Q460.51 174.86 460.51 184.94L460.51 184.94Q460.51 197.68 453.93 205.13Q447.35 212.59 436.08 212.59ZM437.90 171.08L437.90 171.08Q433.28 171.08 431.39 171.15L431.39 171.15L430.69 193.62L431.18 204.96Q437.06 205.38 439.09 205.38L439.09 205.38Q444.62 205.38 447.80 200.90Q450.99 196.42 450.99 187.88Q450.99 179.34 447.87 175.21Q444.76 171.08 437.90 171.08ZM487.81 162.82L487.81 162.82Q496.07 162.82 501.42 169.12Q506.78 175.42 506.78 185.15L506.78 185.15Q506.78 197.47 500.41 205.03Q494.04 212.59 483.68 212.59L483.68 212.59Q475.63 212.59 470.17 206.11Q464.71 199.64 464.71 190.12L464.71 190.12Q464.71 178.22 471.22 170.52Q477.73 162.82 487.81 162.82ZM497.26 189.07L497.26 189.07Q497.26 171.36 485.64 171.36L485.64 171.36Q480.32 171.36 477.27 175.31Q474.23 179.27 474.23 187.14Q474.23 195.02 477.48 200.09Q480.74 205.17 486.09 205.17Q491.45 205.17 494.35 200.86Q497.26 196.56 497.26 189.07ZM542.97 164.43L551.51 163.38L550.60 193.62L551.37 210.28L543.11 212.03L522.25 178.29L522.25 193.62L523.23 211.82L514.48 211.82L515.32 194.81L514.48 163.73L522.88 163.31L543.67 197.54L542.97 164.43ZM561.10 168.14L561.10 168.14L568.73 167.44Q567.19 176.82 564.32 184.52L564.32 184.52L560.33 184.31Q561.10 175.49 561.10 168.14ZM583.01 170.59L570.62 171.57L571.39 163.52L604.64 163.52L603.87 171.57L591.69 170.52L591.41 193.62L592.25 211.82L582.45 211.82L583.29 194.81L583.01 170.59ZM627.81 170.59L615.42 171.57L616.19 163.52L649.44 163.52L648.67 171.57L636.49 170.52L636.21 193.62L637.05 211.82L627.25 211.82L628.09 194.81L627.81 170.59ZM693.40 210.63L683.32 212.17L679.89 198.52L663.16 198.52L659.45 211.82L650.49 211.12L656.65 194.11L666.03 164.01L678.56 163.10L687.59 193.06L693.40 210.63ZM677.79 191.10L672.26 172.20L671.35 172.20L665.33 191.10L677.79 191.10ZM723.08 211.82L700.05 211.82L700.89 194.81L700.05 164.92L709.99 163.17L709.01 193.62L709.50 204.96L723.85 203.84L723.08 211.82ZM729.87 164.92L739.81 163.17L739.04 185.99L756.89 163.31L764.03 168.07L747.93 186.76L765.01 206.99L756.05 212.59L738.97 188.44L738.83 193.62L739.67 211.82L729.87 211.82L730.71 194.81L729.87 164.92Z" stroke-width="0"/>
    </g>
  </svg></g></svg>