<?xml version="1.0" ?><svg style="enable-background:new 0 0 48 48;" version="1.1" viewBox="0 0 48 48" xml:space="preserve" xmlns="http://www.w3.org/2000/svg" xmlns:xlink="http://www.w3.org/1999/xlink"><style type="text/css">
	.Round_x0020_Corners_x0020_2_x0020_pt{fill:#FFFFFF;stroke:#FFFFFF;stroke-miterlimit:10;}
	.Live_x0020_Reflect_x0020_X{fill:none;}
	.Bevel_x0020_Soft{fill:url(#SVGID_1_);}
	.Dusk{fill:#FFFFFF;}
	.Foliage_GS{fill:#FFDD00;}
	.Pompadour_GS{fill-rule:evenodd;clip-rule:evenodd;fill:#44ADE2;}
	.st0{fill:none;stroke:#D4AF37;stroke-width:0.5;stroke-linecap:round;stroke-linejoin:round;stroke-miterlimit:10;}
	.st1{fill:#FFFFFF;}
	.st2{fill:none;}
	.st3{fill:#303030;stroke:#303030;stroke-width:0.5;stroke-linecap:round;stroke-linejoin:round;stroke-miterlimit:10;}
</style><linearGradient gradientUnits="userSpaceOnUse" id="SVGID_1_" x1="-290" x2="-289.29291" y1="-174" y2="-173.29289"><stop offset="0" style="stop-color:#DEDFE3"/><stop offset="0.17833" style="stop-color:#DADBDF"/><stop offset="0.36114" style="stop-color:#CECFD3"/><stop offset="0.54604" style="stop-color:#B9BCBF"/><stop offset="0.7324" style="stop-color:#9CA0A2"/><stop offset="0.91815" style="stop-color:#787D7E"/><stop offset="1" style="stop-color:#656B6C"/></linearGradient><g id="Padding__x26__Artboard"/><g id="Icons"><g><polygon class="st0" points="13.25774,7.85416 17.92441,7.85416 18.50774,8.35416 20.84108,8.35416 20.84108,8.8125     22.88274,8.8125 23.21608,12.3125 21.09108,12.27084 20.00774,13.02084 13.59108,13.02084   "/><path class="st0" d="M22.88274,12.52084c0,0,0.54167,11.45832,12.70834,19.08332l0.25,0.75l-1.08334,1.625l-0.16666,0.83333    l-3.83334,5.33334l-0.66667-0.33334l-0.5,0.25c0,0-7.08333-3.95833-13-14.5c0,0-2.79167-5.54166-3.75-11.29166l-0.625-0.375    c0,0-0.41667-3.79168,1-5.08334"/><polyline class="st0" points="26.92274,38.06084 28.09274,37.73084 32.09274,32.48084 32.26274,31.52084 33.27274,30.00084   "/><path class="st0" d="M14.00774,13.0625c0,0,2.75,15.70833,14.45833,24.08333"/><line class="st0" x1="12.84108" x2="13.59108" y1="14.27084" y2="13.02084"/><path class="st0" d="M16.09274,13.14084c0,0,2.43,13.13,10.38,19.98"/><path class="st0" d="M17.84274,13.10084c0,0,1.57,11.98999,9.47,18.96"/><path class="st0" d="M28.30274,30.83084v-0.01c-7.51-7.01-9.05-17.76-9.05-17.76"/><path class="st0" d="M20.84108,8.8125l0.25,3.45834c0,0,0.79167,11.95832,10.95833,19.45832"/></g></g></svg>